<?xml-stylesheet type="text/css" href="../css/app.css"?>
<svg class="parliament" xmlns="http://www.w3.org/2000/svg" version="2" viewBox="0 0 348 965">
	<rect id="p302" transform="matrix(0,-1,1,0,0,0)" height="20.3" width="20.3" y="-1.566" x="-939.3" fill="#EEE"/>
	<rect id="p303" transform="matrix(0,-1,1,0,0,0)" height="20.3" width="20.3" y="-1.566" x="-917.1" fill="#EEE"/>
	<rect id="p304" transform="matrix(0,-1,1,0,0,0)" height="20.3" width="20.3" y="-1.566" x="-895" fill="#EEE"/>
	<rect id="p305" transform="matrix(0,-1,1,0,0,0)" height="20.3" width="20.3" y="-1.566" x="-872.9" fill="#EEE"/>
	<rect id="p306" transform="matrix(0,-1,1,0,0,0)" height="20.3" width="20.3" y="-1.566" x="-850.7" fill="#EEE"/>
	<rect id="p307" transform="matrix(0,-1,1,0,0,0)" height="20.3" width="20.3" y="-1.566" x="-828.6" fill="#EEE"/>
	<rect id="p263" transform="matrix(0,-1,1,0,0,0)" height="20.3" width="20.3" y="30.27" x="-917.1" fill="#EEE"/>
	<rect id="p264" transform="matrix(0,-1,1,0,0,0)" height="20.3" width="20.3" y="30.27" x="-895" fill="#EEE"/>
	<rect id="p265" transform="matrix(0,-1,1,0,0,0)" height="20.3" width="20.3" y="30.27" x="-872.9" fill="#EEE"/>
	<rect id="p266" transform="matrix(0,-1,1,0,0,0)" height="20.3" width="20.3" y="30.27" x="-850.7" fill="#EEE"/>
	<rect id="p267" transform="matrix(0,-1,1,0,0,0)" height="20.3" width="20.3" y="30.27" x="-828.6" fill="#EEE"/>
	<rect id="p262" transform="matrix(0,-1,1,0,0,0)" height="20.3" width="20.3" y="30.27" x="-961.5" fill="#EEE"/>
	<rect id="p231" transform="matrix(0,-1,1,0,0,0)" height="20.3" width="20.3" y="62.11" x="-917.1" fill="#EEE"/>
	<rect id="p232" transform="matrix(0,-1,1,0,0,0)" height="20.3" width="20.3" y="62.11" x="-895" fill="#EEE"/>
	<rect id="p199" transform="matrix(0,-1,1,0,0,0)" height="20.3" width="20.3" y="93.97" x="-917.1" fill="#EEE"/>
	<rect id="p200" transform="matrix(0,-1,1,0,0,0)" height="20.3" width="20.3" y="93.97" x="-895" fill="#EEE"/>
	<rect id="p230" transform="matrix(0,-1,1,0,0,0)" height="20.3" width="20.3" y="62.13" x="-961.5" fill="#EEE"/>
	<rect id="p198" transform="matrix(0,-1,1,0,0,0)" height="20.3" width="20.3" y="93.95" x="-961.5" fill="#EEE"/>
	<rect id="p233" transform="matrix(0,-1,1,0,0,0)" height="20.3" width="20.3" y="62.11" x="-850.7" fill="#EEE"/>
	<rect id="p234" transform="matrix(0,-1,1,0,0,0)" height="20.3" width="20.3" y="62.11" x="-828.6" fill="#EEE"/>
	<rect id="p201" transform="matrix(0,-1,1,0,0,0)" height="20.3" width="20.3" y="93.95" x="-850.7" fill="#EEE"/>
	<rect id="p202" transform="matrix(0,-1,1,0,0,0)" height="20.3" width="20.3" y="93.95" x="-828.6" fill="#EEE"/>
	<rect id="p169" transform="matrix(0,-1,1,0,0,0)" height="20.3" width="20.3" y="125.8" x="-850.7" fill="#EEE"/>
	<rect id="p170" transform="matrix(0,-1,1,0,0,0)" height="20.3" width="20.3" y="125.8" x="-828.6" fill="#EEE"/>
	<rect id="p308" transform="matrix(0,-1,1,0,0,0)" height="20.3" width="20.3" y="-1.566" x="-796.9" fill="#EEE"/>
	<rect id="p309" transform="matrix(0,-1,1,0,0,0)" height="20.3" width="20.3" y="-1.566" x="-774.7" fill="#EEE"/>
	<rect id="p310" transform="matrix(0,-1,1,0,0,0)" height="20.3" width="20.3" y="-1.566" x="-752.6" fill="#EEE"/>
	<rect id="p311" transform="matrix(0,-1,1,0,0,0)" height="20.3" width="20.3" y="-1.566" x="-730.5" fill="#EEE"/>
	<rect id="p312" transform="matrix(0,-1,1,0,0,0)" height="20.3" width="20.3" y="-1.566" x="-708.4" fill="#EEE"/>
	<rect id="p268" transform="matrix(0,-1,1,0,0,0)" height="20.3" width="20.3" y="30.27" x="-796.9" fill="#EEE"/>
	<rect id="p269" transform="matrix(0,-1,1,0,0,0)" height="20.3" width="20.3" y="30.27" x="-774.7" fill="#EEE"/>
	<rect id="p270" transform="matrix(0,-1,1,0,0,0)" height="20.3" width="20.3" y="30.27" x="-752.6" fill="#EEE"/>
	<rect id="p271" transform="matrix(0,-1,1,0,0,0)" height="20.3" width="20.3" y="30.27" x="-730.5" fill="#EEE"/>
	<rect id="p272" transform="matrix(0,-1,1,0,0,0)" height="20.3" width="20.3" y="30.27" x="-708.4" fill="#EEE"/>
	<rect id="p235" transform="matrix(0,-1,1,0,0,0)" height="20.3" width="20.3" y="62.1" x="-796.9" fill="#EEE"/>
	<rect id="p236" transform="matrix(0,-1,1,0,0,0)" height="20.3" width="20.3" y="62.1" x="-774.7" fill="#EEE"/>
	<rect id="p203" transform="matrix(0,-1,1,0,0,0)" height="20.3" width="20.3" y="93.94" x="-796.9" fill="#EEE"/>
	<rect id="p204" transform="matrix(0,-1,1,0,0,0)" height="20.3" width="20.3" y="93.94" x="-774.7" fill="#EEE"/>
	<rect id="p171" transform="matrix(0,-1,1,0,0,0)" height="20.3" width="20.3" y="125.8" x="-796.9" fill="#EEE"/>
	<rect id="p172" transform="matrix(0,-1,1,0,0,0)" height="20.3" width="20.3" y="125.8" x="-774.7" fill="#EEE"/>
	<rect id="p237" transform="matrix(0,-1,1,0,0,0)" height="20.3" width="20.3" y="62.1" x="-730.5" fill="#EEE"/>
	<rect id="p238" transform="matrix(0,-1,1,0,0,0)" height="20.3" width="20.3" y="62.1" x="-708.4" fill="#EEE"/>
	<rect id="p205" transform="matrix(0,-1,1,0,0,0)" height="20.3" width="20.3" y="93.94" x="-730.5" fill="#EEE"/>
	<rect id="p206" transform="matrix(0,-1,1,0,0,0)" height="20.3" width="20.3" y="93.94" x="-708.4" fill="#EEE"/>
	<rect id="p173" transform="matrix(0,-1,1,0,0,0)" height="20.3" width="20.3" y="125.8" x="-730.5" fill="#EEE"/>
	<rect id="p174" transform="matrix(0,-1,1,0,0,0)" height="20.3" width="20.3" y="125.8" x="-708.4" fill="#EEE"/>
	<rect id="p313" transform="matrix(0,-1,1,0,0,0)" height="20.3" width="20.3" y="-1.566" x="-676.5" fill="#EEE"/>
	<rect id="p314" transform="matrix(0,-1,1,0,0,0)" height="20.3" width="20.3" y="-1.566" x="-654.4" fill="#EEE"/>
	<rect id="p315" transform="matrix(0,-1,1,0,0,0)" height="20.3" width="20.3" y="-1.566" x="-632.3" fill="#EEE"/>
	<rect id="p316" transform="matrix(0,-1,1,0,0,0)" height="20.3" width="20.3" y="-1.566" x="-610.2" fill="#EEE"/>
	<rect id="p317" transform="matrix(0,-1,1,0,0,0)" height="20.3" width="20.3" y="-1.566" x="-588" fill="#EEE"/>
	<rect id="p273" transform="matrix(0,-1,1,0,0,0)" height="20.3" width="20.3" y="30.27" x="-676.5" fill="#EEE"/>
	<rect id="p274" transform="matrix(0,-1,1,0,0,0)" height="20.3" width="20.3" y="30.27" x="-654.4" fill="#EEE"/>
	<rect id="p275" transform="matrix(0,-1,1,0,0,0)" height="20.3" width="20.3" y="30.27" x="-632.3" fill="#EEE"/>
	<rect id="p276" transform="matrix(0,-1,1,0,0,0)" height="20.3" width="20.3" y="30.27" x="-610.2" fill="#EEE"/>
	<rect id="p277" transform="matrix(0,-1,1,0,0,0)" height="20.3" width="20.3" y="30.27" x="-588" fill="#EEE"/>
	<rect id="p239" transform="matrix(0,-1,1,0,0,0)" height="20.3" width="20.3" y="62.1" x="-676.5" fill="#EEE"/>
	<rect id="p240" transform="matrix(0,-1,1,0,0,0)" height="20.3" width="20.3" y="62.1" x="-654.4" fill="#EEE"/>
	<rect id="p207" transform="matrix(0,-1,1,0,0,0)" height="20.3" width="20.3" y="93.94" x="-676.5" fill="#EEE"/>
	<rect id="p208" transform="matrix(0,-1,1,0,0,0)" height="20.3" width="20.3" y="93.94" x="-654.4" fill="#EEE"/>
	<rect id="p175" transform="matrix(0,-1,1,0,0,0)" height="20.3" width="20.3" y="125.8" x="-676.5" fill="#EEE"/>
	<rect id="p176" transform="matrix(0,-1,1,0,0,0)" height="20.3" width="20.3" y="125.8" x="-654.4" fill="#EEE"/>
	<rect id="p241" transform="matrix(0,-1,1,0,0,0)" height="20.3" width="20.3" y="62.1" x="-610.2" fill="#EEE"/>
	<rect id="p242" transform="matrix(0,-1,1,0,0,0)" height="20.3" width="20.3" y="62.1" x="-588" fill="#EEE"/>
	<rect id="p209" transform="matrix(0,-1,1,0,0,0)" height="20.3" width="20.3" y="93.94" x="-610.2" fill="#EEE"/>
	<rect id="p210" transform="matrix(0,-1,1,0,0,0)" height="20.3" width="20.3" y="93.94" x="-588" fill="#EEE"/>
	<rect id="p177" transform="matrix(0,-1,1,0,0,0)" height="20.3" width="20.3" y="125.8" x="-610.2" fill="#EEE"/>
	<rect id="p178" transform="matrix(0,-1,1,0,0,0)" height="20.3" width="20.3" y="125.8" x="-588" fill="#EEE"/>
	<rect id="p318" transform="matrix(0,-1,1,0,0,0)" height="20.3" width="20.3" y="-1.553" x="-556.2" fill="#EEE"/>
	<rect id="p319" transform="matrix(0,-1,1,0,0,0)" height="20.3" width="20.3" y="-1.553" x="-534.1" fill="#EEE"/>
	<rect id="p320" transform="matrix(0,-1,1,0,0,0)" height="20.3" width="20.3" y="-1.553" x="-512" fill="#EEE"/>
	<rect id="p321" transform="matrix(0,-1,1,0,0,0)" height="20.3" width="20.3" y="-1.553" x="-489.8" fill="#EEE"/>
	<rect id="p322" transform="matrix(0,-1,1,0,0,0)" height="20.3" width="20.3" y="-1.553" x="-467.7" fill="#EEE"/>
	<rect id="p278" transform="matrix(0,-1,1,0,0,0)" height="20.3" width="20.3" y="30.29" x="-556.2" fill="#EEE"/>
	<rect id="p279" transform="matrix(0,-1,1,0,0,0)" height="20.3" width="20.3" y="30.29" x="-534.1" fill="#EEE"/>
	<rect id="p280" transform="matrix(0,-1,1,0,0,0)" height="20.3" width="20.3" y="30.29" x="-512" fill="#EEE"/>
	<rect id="p281" transform="matrix(0,-1,1,0,0,0)" height="20.3" width="20.3" y="30.29" x="-489.8" fill="#EEE"/>
	<rect id="p282" transform="matrix(0,-1,1,0,0,0)" height="20.3" width="20.3" y="30.29" x="-467.7" fill="#EEE"/>
	<rect id="p243" transform="matrix(0,-1,1,0,0,0)" height="20.3" width="20.3" y="62.12" x="-556.2" fill="#EEE"/>
	<rect id="p244" transform="matrix(0,-1,1,0,0,0)" height="20.3" width="20.3" y="62.12" x="-534.1" fill="#EEE"/>
	<rect id="p211" transform="matrix(0,-1,1,0,0,0)" height="20.3" width="20.3" y="93.96" x="-556.2" fill="#EEE"/>
	<rect id="p212" transform="matrix(0,-1,1,0,0,0)" height="20.3" width="20.3" y="93.96" x="-534.1" fill="#EEE"/>
	<rect id="p179" transform="matrix(0,-1,1,0,0,0)" height="20.3" width="20.3" y="125.8" x="-556.2" fill="#EEE"/>
	<rect id="p180" transform="matrix(0,-1,1,0,0,0)" height="20.3" width="20.3" y="125.8" x="-534.1" fill="#EEE"/>
	<rect id="p245" transform="matrix(0,-1,1,0,0,0)" height="20.3" width="20.3" y="62.11" x="-489.8" fill="#EEE"/>
	<rect id="p246" transform="matrix(0,-1,1,0,0,0)" height="20.3" width="20.3" y="62.11" x="-467.7" fill="#EEE"/>
	<rect id="p213" transform="matrix(0,-1,1,0,0,0)" height="20.3" width="20.3" y="93.95" x="-489.8" fill="#EEE"/>
	<rect id="p214" transform="matrix(0,-1,1,0,0,0)" height="20.3" width="20.3" y="93.95" x="-467.7" fill="#EEE"/>
	<rect id="p181" transform="matrix(0,-1,1,0,0,0)" height="20.3" width="20.3" y="125.8" x="-489.8" fill="#EEE"/>
	<rect id="p182" transform="matrix(0,-1,1,0,0,0)" height="20.3" width="20.3" y="125.8" x="-467.7" fill="#EEE"/>
	<rect id="p323" transform="matrix(0,-1,1,0,0,0)" height="20.3" width="20.3" y="-1.553" x="-435.9" fill="#EEE"/>
	<rect id="p324" transform="matrix(0,-1,1,0,0,0)" height="20.3" width="20.3" y="-1.553" x="-413.8" fill="#EEE"/>
	<rect id="p325" transform="matrix(0,-1,1,0,0,0)" height="20.3" width="20.3" y="-1.553" x="-391.7" fill="#EEE"/>
	<rect id="p326" transform="matrix(0,-1,1,0,0,0)" height="20.3" width="20.3" y="-1.553" x="-369.5" fill="#EEE"/>
	<rect id="p283" transform="matrix(0,-1,1,0,0,0)" height="20.3" width="20.3" y="30.29" x="-435.9" fill="#EEE"/>
	<rect id="p284" transform="matrix(0,-1,1,0,0,0)" height="20.3" width="20.3" y="30.29" x="-413.8" fill="#EEE"/>
	<rect id="p285" transform="matrix(0,-1,1,0,0,0)" height="20.3" width="20.3" y="30.29" x="-391.7" fill="#EEE"/>
	<rect id="p286" transform="matrix(0,-1,1,0,0,0)" height="20.3" width="20.3" y="30.29" x="-369.5" fill="#EEE"/>
	<rect id="p287" transform="matrix(0,-1,1,0,0,0)" height="20.3" width="20.3" y="30.29" x="-347.4" fill="#EEE"/>
	<rect id="p247" transform="matrix(0,-1,1,0,0,0)" height="20.3" width="20.3" y="62.12" x="-435.9" fill="#EEE"/>
	<rect id="p248" transform="matrix(0,-1,1,0,0,0)" height="20.3" width="20.3" y="62.12" x="-413.8" fill="#EEE"/>
	<rect id="p215" transform="matrix(0,-1,1,0,0,0)" height="20.3" width="20.3" y="93.96" x="-435.9" fill="#EEE"/>
	<rect id="p216" transform="matrix(0,-1,1,0,0,0)" height="20.3" width="20.3" y="93.96" x="-413.8" fill="#EEE"/>
	<rect id="p183" transform="matrix(0,-1,1,0,0,0)" height="20.3" width="20.3" y="125.8" x="-435.9" fill="#EEE"/>
	<rect id="p184" transform="matrix(0,-1,1,0,0,0)" height="20.3" width="20.3" y="125.8" x="-413.8" fill="#EEE"/>
	<rect id="p249" transform="matrix(0,-1,1,0,0,0)" height="20.3" width="20.3" y="62.11" x="-369.5" fill="#EEE"/>
	<rect id="p250" transform="matrix(0,-1,1,0,0,0)" height="20.3" width="20.3" y="62.11" x="-347.4" fill="#EEE"/>
	<rect id="p217" transform="matrix(0,-1,1,0,0,0)" height="20.3" width="20.3" y="93.95" x="-369.5" fill="#EEE"/>
	<rect id="p218" transform="matrix(0,-1,1,0,0,0)" height="20.3" width="20.3" y="93.95" x="-347.4" fill="#EEE"/>
	<rect id="p185" transform="matrix(0,-1,1,0,0,0)" height="20.3" width="20.3" y="125.8" x="-369.5" fill="#EEE"/>
	<rect id="p186" transform="matrix(0,-1,1,0,0,0)" height="20.3" width="20.3" y="125.8" x="-347.4" fill="#EEE"/>
	<rect id="p328" transform="matrix(0,-1,1,0,0,0)" height="20.3" width="20.3" y="-1.553" x="-315.6" fill="#EEE"/>
	<rect id="p329" transform="matrix(0,-1,1,0,0,0)" height="20.3" width="20.3" y="-1.553" x="-293.5" fill="#EEE"/>
	<rect id="p330" transform="matrix(0,-1,1,0,0,0)" height="20.3" width="20.3" y="-1.553" x="-271.3" fill="#EEE"/>
	<rect id="p331" transform="matrix(0,-1,1,0,0,0)" height="20.3" width="20.3" y="-1.553" x="-249.2" fill="#EEE"/>
	<rect id="p332" transform="matrix(0,-1,1,0,0,0)" height="20.3" width="20.3" y="-1.553" x="-227.1" fill="#EEE"/>
	<rect id="p289" transform="matrix(0,-1,1,0,0,0)" height="20.3" width="20.3" y="30.29" x="-293.5" fill="#EEE"/>
	<rect id="p290" transform="matrix(0,-1,1,0,0,0)" height="20.3" width="20.3" y="30.29" x="-271.3" fill="#EEE"/>
	<rect id="p291" transform="matrix(0,-1,1,0,0,0)" height="20.3" width="20.3" y="30.29" x="-249.2" fill="#EEE"/>
	<rect id="p292" transform="matrix(0,-1,1,0,0,0)" height="20.3" width="20.3" y="30.29" x="-227.1" fill="#EEE"/>
	<rect id="p288" transform="matrix(0,-1,1,0,0,0)" height="20.3" width="20.3" y="30.29" x="-315.6" fill="#EEE"/>
	<rect id="p252" transform="matrix(0,-1,1,0,0,0)" height="20.3" width="20.3" y="62.12" x="-293.5" fill="#EEE"/>
	<rect id="p251" transform="matrix(0,-1,1,0,0,0)" height="20.3" width="20.3" y="62.12" x="-315.6" fill="#EEE"/>
	<rect id="p219" transform="matrix(0,-1,1,0,0,0)" height="20.3" width="20.3" y="93.96" x="-315.6" fill="#EEE"/>
	<rect id="p220" transform="matrix(0,-1,1,0,0,0)" height="20.3" width="20.3" y="93.96" x="-293.5" fill="#EEE"/>
	<rect id="p187" transform="matrix(0,-1,1,0,0,0)" height="20.3" width="20.3" y="125.8" x="-315.6" fill="#EEE"/>
	<rect id="p188" transform="matrix(0,-1,1,0,0,0)" height="20.3" width="20.3" y="125.8" x="-293.5" fill="#EEE"/>
	<rect id="p253" transform="matrix(0,-1,1,0,0,0)" height="20.3" width="20.3" y="62.11" x="-249.2" fill="#EEE"/>
	<rect id="p254" transform="matrix(0,-1,1,0,0,0)" height="20.3" width="20.3" y="62.11" x="-227.1" fill="#EEE"/>
	<rect id="p221" transform="matrix(0,-1,1,0,0,0)" height="20.3" width="20.3" y="93.95" x="-249.2" fill="#EEE"/>
	<rect id="p222" transform="matrix(0,-1,1,0,0,0)" height="20.3" width="20.3" y="93.95" x="-227.1" fill="#EEE"/>
	<rect id="p189" transform="matrix(0,-1,1,0,0,0)" height="20.3" width="20.3" y="125.8" x="-249.2" fill="#EEE"/>
	<rect id="p190" transform="matrix(0,-1,1,0,0,0)" height="20.3" width="20.3" y="125.8" x="-227.1" fill="#EEE"/>
	<rect id="p333" transform="matrix(0,-1,1,0,0,0)" height="20.3" width="20.3" y="-1.574" x="-195.3" fill="#EEE"/>
	<rect id="p334" transform="matrix(0,-1,1,0,0,0)" height="20.3" width="20.3" y="-1.574" x="-173.1" fill="#EEE"/>
	<rect id="p335" transform="matrix(0,-1,1,0,0,0)" height="20.3" width="20.3" y="-1.574" x="-151" fill="#EEE"/>
	<rect id="p336" transform="matrix(0,-1,1,0,0,0)" height="20.3" width="20.3" y="-1.574" x="-128.9" fill="#EEE"/>
	<rect id="p337" transform="matrix(0,-1,1,0,0,0)" height="20.3" width="20.3" y="-1.574" x="-106.8" fill="#EEE"/>
	<rect id="p293" transform="matrix(0,-1,1,0,0,0)" height="20.3" width="20.3" y="30.27" x="-195.3" fill="#EEE"/>
	<rect id="p294" transform="matrix(0,-1,1,0,0,0)" height="20.3" width="20.3" y="30.27" x="-173.1" fill="#EEE"/>
	<rect id="p295" transform="matrix(0,-1,1,0,0,0)" height="20.3" width="20.3" y="30.27" x="-151" fill="#EEE"/>
	<rect id="p296" transform="matrix(0,-1,1,0,0,0)" height="20.3" width="20.3" y="30.27" x="-128.9" fill="#EEE"/>
	<rect id="p297" transform="matrix(0,-1,1,0,0,0)" height="20.3" width="20.3" y="30.27" x="-106.8" fill="#EEE"/>
	<rect id="p255" transform="matrix(0,-1,1,0,0,0)" height="20.3" width="20.3" y="62.1" x="-195.3" fill="#EEE"/>
	<rect id="p256" transform="matrix(0,-1,1,0,0,0)" height="20.3" width="20.3" y="62.1" x="-173.1" fill="#EEE"/>
	<rect id="p223" transform="matrix(0,-1,1,0,0,0)" height="20.3" width="20.3" y="93.94" x="-195.3" fill="#EEE"/>
	<rect id="p224" transform="matrix(0,-1,1,0,0,0)" height="20.3" width="20.3" y="93.94" x="-173.1" fill="#EEE"/>
	<rect id="p192" transform="matrix(0,-1,1,0,0,0)" height="20.3" width="20.3" y="125.8" x="-173.1" fill="#EEE"/>
	<rect id="p257" transform="matrix(0,-1,1,0,0,0)" height="20.3" width="20.3" y="62.09" x="-128.9" fill="#EEE"/>
	<rect id="p258" transform="matrix(0,-1,1,0,0,0)" height="20.3" width="20.3" y="62.09" x="-106.8" fill="#EEE"/>
	<rect id="p225" transform="matrix(0,-1,1,0,0,0)" height="20.3" width="20.3" y="93.93" x="-128.9" fill="#EEE"/>
	<rect id="p226" transform="matrix(0,-1,1,0,0,0)" height="20.3" width="20.3" y="93.93" x="-106.8" fill="#EEE"/>
	<rect id="p193" transform="matrix(0,-1,1,0,0,0)" height="20.3" width="20.3" y="125.8" x="-128.9" fill="#EEE"/>
	<rect id="p194" transform="matrix(0,-1,1,0,0,0)" height="20.3" width="20.3" y="125.8" x="-106.8" fill="#EEE"/>
	<rect id="p338" transform="matrix(0,-1,1,0,0,0)" height="20.3" width="20.3" y="-1.578" x="-74.59" fill="#EEE"/>
	<rect id="p298" transform="matrix(0,-1,1,0,0,0)" height="20.3" width="20.3" y="30.26" x="-74.59" fill="#EEE"/>
	<rect id="p299" transform="matrix(0,-1,1,0,0,0)" height="20.3" width="20.3" y="30.26" x="-52.46" fill="#EEE"/>
	<rect id="p259" transform="matrix(0,-1,1,0,0,0)" height="20.3" width="20.3" y="62.08" x="-74.59" fill="#EEE"/>
	<rect id="p260" transform="matrix(0,-1,1,0,0,0)" height="20.3" width="20.3" y="62.08" x="-52.46" fill="#EEE"/>
	<rect id="p227" transform="matrix(0,-1,1,0,0,0)" height="20.3" width="20.3" y="93.92" x="-74.59" fill="#EEE"/>
	<rect id="p228" transform="matrix(0,-1,1,0,0,0)" height="20.3" width="20.3" y="93.92" x="-52.46" fill="#EEE"/>
	<rect id="p195" transform="matrix(0,-1,1,0,0,0)" height="20.3" width="20.3" y="125.8" x="-74.59" fill="#EEE"/>
	<rect id="p196" transform="matrix(0,-1,1,0,0,0)" height="20.3" width="20.3" y="125.8" x="-52.46" fill="#EEE"/>
	<rect id="p300" transform="matrix(0,-1,1,0,0,0)" height="20.3" width="20.3" y="30.27" x="-20.3" fill="#EEE"/>
	<rect id="p261" transform="matrix(0,-1,1,0,0,0)" height="20.3" width="20.3" y="62.09" x="-20.3" fill="#EEE"/>
	<rect id="p229" transform="matrix(0,-1,1,0,0,0)" height="20.3" width="20.3" y="93.93" x="-20.3" fill="#EEE"/>
	<rect id="p197" transform="matrix(0,-1,1,0,0,0)" height="20.3" width="20.3" y="125.8" x="-20.3" fill="#EEE"/>
	<rect id="p131" transform="matrix(0,-1,1,0,0,0)" height="20.3" width="20.3" y="326.8" x="-939.3" fill="#EEE"/>
	<rect id="p132" transform="matrix(0,-1,1,0,0,0)" height="20.3" width="20.3" y="326.8" x="-917.1" fill="#EEE"/>
	<rect id="p133" transform="matrix(0,-1,1,0,0,0)" height="20.3" width="20.3" y="326.8" x="-895" fill="#EEE"/>
	<rect id="p134" transform="matrix(0,-1,1,0,0,0)" height="20.3" width="20.3" y="326.8" x="-872.9" fill="#EEE"/>
	<rect id="p135" transform="matrix(0,-1,1,0,0,0)" height="20.3" width="20.3" y="326.8" x="-850.7" fill="#EEE"/>
	<rect id="p136" transform="matrix(0,-1,1,0,0,0)" height="20.3" width="20.3" y="326.8" x="-828.6" fill="#EEE"/>
	<rect id="p92" transform="matrix(0,-1,1,0,0,0)" height="20.3" width="20.3" y="294.9" x="-917.1" fill="#EEE"/>
	<rect id="p93" transform="matrix(0,-1,1,0,0,0)" height="20.3" width="20.3" y="294.9" x="-895" fill="#EEE"/>
	<rect id="p95" transform="matrix(0,-1,1,0,0,0)" height="20.3" width="20.3" y="294.9" x="-850.7" fill="#EEE"/>
	<rect id="p96" transform="matrix(0,-1,1,0,0,0)" height="20.3" width="20.3" y="294.9" x="-828.6" fill="#EEE"/>
	<rect id="p61" transform="matrix(0,-1,1,0,0,0)" height="20.3" width="20.3" y="263.1" x="-917.1" fill="#EEE"/>
	<rect id="p62" transform="matrix(0,-1,1,0,0,0)" height="20.3" width="20.3" y="263.1" x="-895" fill="#EEE"/>
	<rect id="p30" transform="matrix(0,-1,1,0,0,0)" height="20.3" width="20.3" y="231.2" x="-917.1" fill="#EEE"/>
	<rect id="p31" transform="matrix(0,-1,1,0,0,0)" height="20.3" width="20.3" y="231.2" x="-895" fill="#EEE"/>
	<rect id="p63" transform="matrix(0,-1,1,0,0,0)" height="20.3" width="20.3" y="263.1" x="-850.7" fill="#EEE"/>
	<rect id="p64" transform="matrix(0,-1,1,0,0,0)" height="20.3" width="20.3" y="263.1" x="-828.6" fill="#EEE"/>
	<rect id="p32" transform="matrix(0,-1,1,0,0,0)" height="20.3" width="20.3" y="231.3" x="-850.7" fill="#EEE"/>
	<rect id="p33" transform="matrix(0,-1,1,0,0,0)" height="20.3" width="20.3" y="231.3" x="-828.6" fill="#EEE"/>
	<rect id="p1" transform="matrix(0,-1,1,0,0,0)" height="20.3" width="20.3" y="199.4" x="-850.7" fill="#EEE"/>
	<rect id="p2" transform="matrix(0,-1,1,0,0,0)" height="20.3" width="20.3" y="199.4" x="-828.6" fill="#EEE"/>
	<rect id="p137" transform="matrix(0,-1,1,0,0,0)" height="20.3" width="20.3" y="326.8" x="-796.9" fill="#EEE"/>
	<rect id="p138" transform="matrix(0,-1,1,0,0,0)" height="20.3" width="20.3" y="326.8" x="-774.7" fill="#EEE"/>
	<rect id="p139" transform="matrix(0,-1,1,0,0,0)" height="20.3" width="20.3" y="326.8" x="-752.6" fill="#EEE"/>
	<rect id="p140" transform="matrix(0,-1,1,0,0,0)" height="20.3" width="20.3" y="326.8" x="-730.5" fill="#EEE"/>
	<rect id="p141" transform="matrix(0,-1,1,0,0,0)" height="20.3" width="20.3" y="326.8" x="-708.4" fill="#EEE"/>
	<rect id="p97" transform="matrix(0,-1,1,0,0,0)" height="20.3" width="20.3" y="294.9" x="-796.9" fill="#EEE"/>
	<rect id="p98" transform="matrix(0,-1,1,0,0,0)" height="20.3" width="20.3" y="294.9" x="-774.7" fill="#EEE"/>
	<rect id="p99" transform="matrix(0,-1,1,0,0,0)" height="20.3" width="20.3" y="294.9" x="-752.6" fill="#EEE"/>
	<rect id="p100" transform="matrix(0,-1,1,0,0,0)" height="20.3" width="20.3" y="294.9" x="-730.5" fill="#EEE"/>
	<rect id="p101" transform="matrix(0,-1,1,0,0,0)" height="20.3" width="20.3" y="294.9" x="-708.4" fill="#EEE"/>
	<rect id="p65" transform="matrix(0,-1,1,0,0,0)" height="20.3" width="20.3" y="263.1" x="-796.9" fill="#EEE"/>
	<rect id="p66" transform="matrix(0,-1,1,0,0,0)" height="20.3" width="20.3" y="263.1" x="-774.7" fill="#EEE"/>
	<rect id="p34" transform="matrix(0,-1,1,0,0,0)" height="20.3" width="20.3" y="231.3" x="-796.9" fill="#EEE"/>
	<rect id="p35" transform="matrix(0,-1,1,0,0,0)" height="20.3" width="20.3" y="231.3" x="-774.7" fill="#EEE"/>
	<rect id="p3" transform="matrix(0,-1,1,0,0,0)" height="20.3" width="20.3" y="199.4" x="-796.9" fill="#EEE"/>
	<rect id="p4" transform="matrix(0,-1,1,0,0,0)" height="20.3" width="20.3" y="199.4" x="-774.7" fill="#EEE"/>
	<rect id="p67" transform="matrix(0,-1,1,0,0,0)" height="20.3" width="20.3" y="263.1" x="-730.5" fill="#EEE"/>
	<rect id="p68" transform="matrix(0,-1,1,0,0,0)" height="20.3" width="20.3" y="263.1" x="-708.4" fill="#EEE"/>
	<rect id="p36" transform="matrix(0,-1,1,0,0,0)" height="20.3" width="20.3" y="231.3" x="-730.5" fill="#EEE"/>
	<rect id="p37" transform="matrix(0,-1,1,0,0,0)" height="20.3" width="20.3" y="231.3" x="-708.4" fill="#EEE"/>
	<rect id="p5" transform="matrix(0,-1,1,0,0,0)" height="20.3" width="20.3" y="199.4" x="-730.5" fill="#EEE"/>
	<rect id="p6" transform="matrix(0,-1,1,0,0,0)" height="20.3" width="20.3" y="199.4" x="-708.4" fill="#EEE"/>
	<rect id="p142" transform="matrix(0,-1,1,0,0,0)" height="20.3" width="20.3" y="326.8" x="-676.5" fill="#EEE"/>
	<rect id="p143" transform="matrix(0,-1,1,0,0,0)" height="20.3" width="20.3" y="326.8" x="-654.4" fill="#EEE"/>
	<rect id="p144" transform="matrix(0,-1,1,0,0,0)" height="20.3" width="20.3" y="326.8" x="-632.3" fill="#EEE"/>
	<rect id="p145" transform="matrix(0,-1,1,0,0,0)" height="20.3" width="20.3" y="326.8" x="-610.2" fill="#EEE"/>
	<rect id="p146" transform="matrix(0,-1,1,0,0,0)" height="20.3" width="20.3" y="326.8" x="-588" fill="#EEE"/>
	<rect id="p102" transform="matrix(0,-1,1,0,0,0)" height="20.3" width="20.3" y="294.9" x="-676.5" fill="#EEE"/>
	<rect id="p103" transform="matrix(0,-1,1,0,0,0)" height="20.3" width="20.3" y="294.9" x="-654.4" fill="#EEE"/>
	<rect id="p104" transform="matrix(0,-1,1,0,0,0)" height="20.3" width="20.3" y="294.9" x="-632.3" fill="#EEE"/>
	<rect id="p105" transform="matrix(0,-1,1,0,0,0)" height="20.3" width="20.3" y="294.9" x="-610.2" fill="#EEE"/>
	<rect id="p106" transform="matrix(0,-1,1,0,0,0)" height="20.3" width="20.3" y="294.9" x="-588" fill="#EEE"/>
	<rect id="p69" transform="matrix(0,-1,1,0,0,0)" height="20.3" width="20.3" y="263.1" x="-676.5" fill="#EEE"/>
	<rect id="p70" transform="matrix(0,-1,1,0,0,0)" height="20.3" width="20.3" y="263.1" x="-654.4" fill="#EEE"/>
	<rect id="p38" transform="matrix(0,-1,1,0,0,0)" height="20.3" width="20.3" y="231.3" x="-676.5" fill="#EEE"/>
	<rect id="p39" transform="matrix(0,-1,1,0,0,0)" height="20.3" width="20.3" y="231.3" x="-654.4" fill="#EEE"/>
	<rect id="p7" transform="matrix(0,-1,1,0,0,0)" height="20.3" width="20.3" y="199.4" x="-676.5" fill="#EEE"/>
	<rect id="p8" transform="matrix(0,-1,1,0,0,0)" height="20.3" width="20.3" y="199.4" x="-654.4" fill="#EEE"/>
	<rect id="p71" transform="matrix(0,-1,1,0,0,0)" height="20.3" width="20.3" y="263.1" x="-610.2" fill="#EEE"/>
	<rect id="p72" transform="matrix(0,-1,1,0,0,0)" height="20.3" width="20.3" y="263.1" x="-588" fill="#EEE"/>
	<rect id="p40" transform="matrix(0,-1,1,0,0,0)" height="20.3" width="20.3" y="231.3" x="-610.2" fill="#EEE"/>
	<rect id="p41" transform="matrix(0,-1,1,0,0,0)" height="20.3" width="20.3" y="231.3" x="-588" fill="#EEE"/>
	<rect id="p9" transform="matrix(0,-1,1,0,0,0)" height="20.3" width="20.3" y="199.4" x="-610.2" fill="#EEE"/>
	<rect id="p10" transform="matrix(0,-1,1,0,0,0)" height="20.3" width="20.3" y="199.4" x="-588" fill="#EEE"/>
	<rect id="p147" transform="matrix(0,-1,1,0,0,0)" height="20.3" width="20.3" y="326.8" x="-556.2" fill="#EEE"/>
	<rect id="p148" transform="matrix(0,-1,1,0,0,0)" height="20.3" width="20.3" y="326.8" x="-534.1" fill="#EEE"/>
	<rect id="p149" transform="matrix(0,-1,1,0,0,0)" height="20.3" width="20.3" y="326.8" x="-512" fill="#EEE"/>
	<rect id="p150" transform="matrix(0,-1,1,0,0,0)" height="20.3" width="20.3" y="326.8" x="-489.8" fill="#EEE"/>
	<rect id="p151" transform="matrix(0,-1,1,0,0,0)" height="20.3" width="20.3" y="326.8" x="-467.7" fill="#EEE"/>
	<rect id="p107" transform="matrix(0,-1,1,0,0,0)" height="20.3" width="20.3" y="294.9" x="-556.2" fill="#EEE"/>
	<rect id="p108" transform="matrix(0,-1,1,0,0,0)" height="20.3" width="20.3" y="294.9" x="-534.1" fill="#EEE"/>
	<rect id="p109" transform="matrix(0,-1,1,0,0,0)" height="20.3" width="20.3" y="294.9" x="-512" fill="#EEE"/>
	<rect id="p110" transform="matrix(0,-1,1,0,0,0)" height="20.3" width="20.3" y="294.9" x="-489.8" fill="#EEE"/>
	<rect id="p111" transform="matrix(0,-1,1,0,0,0)" height="20.3" width="20.3" y="294.9" x="-467.7" fill="#EEE"/>
	<rect id="p73" transform="matrix(0,-1,1,0,0,0)" height="20.3" width="20.3" y="263.1" x="-556.2" fill="#EEE"/>
	<rect id="p74" transform="matrix(0,-1,1,0,0,0)" height="20.3" width="20.3" y="263.1" x="-534.1" fill="#EEE"/>
	<rect id="p42" transform="matrix(0,-1,1,0,0,0)" height="20.3" width="20.3" y="231.2" x="-556.2" fill="#EEE"/>
	<rect id="p43" transform="matrix(0,-1,1,0,0,0)" height="20.3" width="20.3" y="231.2" x="-534.1" fill="#EEE"/>
	<rect id="p11" transform="matrix(0,-1,1,0,0,0)" height="20.3" width="20.3" y="199.4" x="-556.2" fill="#EEE"/>
	<rect id="p12" transform="matrix(0,-1,1,0,0,0)" height="20.3" width="20.3" y="199.4" x="-534.1" fill="#EEE"/>
	<rect id="p75" transform="matrix(0,-1,1,0,0,0)" height="20.3" width="20.3" y="263.1" x="-489.8" fill="#EEE"/>
	<rect id="p76" transform="matrix(0,-1,1,0,0,0)" height="20.3" width="20.3" y="263.1" x="-467.7" fill="#EEE"/>
	<rect id="p44" transform="matrix(0,-1,1,0,0,0)" height="20.3" width="20.3" y="231.3" x="-489.8" fill="#EEE"/>
	<rect id="p45" transform="matrix(0,-1,1,0,0,0)" height="20.3" width="20.3" y="231.3" x="-467.7" fill="#EEE"/>
	<rect id="p13" transform="matrix(0,-1,1,0,0,0)" height="20.3" width="20.3" y="199.4" x="-489.8" fill="#EEE"/>
	<rect id="p14" transform="matrix(0,-1,1,0,0,0)" height="20.3" width="20.3" y="199.4" x="-467.7" fill="#EEE"/>
	<rect id="p152" transform="matrix(0,-1,1,0,0,0)" height="20.3" width="20.3" y="326.8" x="-435.9" fill="#EEE"/>
	<rect id="p153" transform="matrix(0,-1,1,0,0,0)" height="20.3" width="20.3" y="326.8" x="-413.8" fill="#EEE"/>
	<rect id="p154" transform="matrix(0,-1,1,0,0,0)" height="20.3" width="20.3" y="326.8" x="-391.7" fill="#EEE"/>
	<rect id="p155" transform="matrix(0,-1,1,0,0,0)" height="20.3" width="20.3" y="326.8" x="-369.5" fill="#EEE"/>
	<rect id="p156" transform="matrix(0,-1,1,0,0,0)" height="20.3" width="20.3" y="326.8" x="-347.4" fill="#EEE"/>
	<rect id="p112" transform="matrix(0,-1,1,0,0,0)" height="20.3" width="20.3" y="294.9" x="-435.9" fill="#EEE"/>
	<rect id="p113" transform="matrix(0,-1,1,0,0,0)" height="20.3" width="20.3" y="294.9" x="-413.8" fill="#EEE"/>
	<rect id="p114" transform="matrix(0,-1,1,0,0,0)" height="20.3" width="20.3" y="294.9" x="-391.7" fill="#EEE"/>
	<rect id="p115" transform="matrix(0,-1,1,0,0,0)" height="20.3" width="20.3" y="294.9" x="-369.5" fill="#EEE"/>
	<rect id="p116" transform="matrix(0,-1,1,0,0,0)" height="20.3" width="20.3" y="294.9" x="-347.4" fill="#EEE"/>
	<rect id="p77" transform="matrix(0,-1,1,0,0,0)" height="20.3" width="20.3" y="263.1" x="-435.9" fill="#EEE"/>
	<rect id="p78" transform="matrix(0,-1,1,0,0,0)" height="20.3" width="20.3" y="263.1" x="-413.8" fill="#EEE"/>
	<rect id="p46" transform="matrix(0,-1,1,0,0,0)" height="20.3" width="20.3" y="231.2" x="-435.9" fill="#EEE"/>
	<rect id="p47" transform="matrix(0,-1,1,0,0,0)" height="20.3" width="20.3" y="231.2" x="-413.8" fill="#EEE"/>
	<rect id="p15" transform="matrix(0,-1,1,0,0,0)" height="20.3" width="20.3" y="199.4" x="-435.9" fill="#EEE"/>
	<rect id="p16" transform="matrix(0,-1,1,0,0,0)" height="20.3" width="20.3" y="199.4" x="-413.8" fill="#EEE"/>
	<rect id="p79" transform="matrix(0,-1,1,0,0,0)" height="20.3" width="20.3" y="263.1" x="-369.5" fill="#EEE"/>
	<rect id="p80" transform="matrix(0,-1,1,0,0,0)" height="20.3" width="20.3" y="263.1" x="-347.4" fill="#EEE"/>
	<rect id="p48" transform="matrix(0,-1,1,0,0,0)" height="20.3" width="20.3" y="231.3" x="-369.5" fill="#EEE"/>
	<rect id="p49" transform="matrix(0,-1,1,0,0,0)" height="20.3" width="20.3" y="231.3" x="-347.4" fill="#EEE"/>
	<rect id="p17" transform="matrix(0,-1,1,0,0,0)" height="20.3" width="20.3" y="199.4" x="-369.5" fill="#EEE"/>
	<rect id="p18" transform="matrix(0,-1,1,0,0,0)" height="20.3" width="20.3" y="199.4" x="-347.4" fill="#EEE"/>
	<rect id="p157" transform="matrix(0,-1,1,0,0,0)" height="20.3" width="20.3" y="326.8" x="-315.6" fill="#EEE"/>
	<rect id="p158" transform="matrix(0,-1,1,0,0,0)" height="20.3" width="20.3" y="326.8" x="-293.5" fill="#EEE"/>
	<rect id="p159" transform="matrix(0,-1,1,0,0,0)" height="20.3" width="20.3" y="326.8" x="-271.3" fill="#EEE"/>
	<rect id="p160" transform="matrix(0,-1,1,0,0,0)" height="20.3" width="20.3" y="326.8" x="-249.2" fill="#EEE"/>
	<rect id="p161" transform="matrix(0,-1,1,0,0,0)" height="20.3" width="20.3" y="326.8" x="-227.1" fill="#EEE"/>
	<rect id="p117" transform="matrix(0,-1,1,0,0,0)" height="20.3" width="20.3" y="294.9" x="-315.6" fill="#EEE"/>
	<rect id="p118" transform="matrix(0,-1,1,0,0,0)" height="20.3" width="20.3" y="294.9" x="-293.5" fill="#EEE"/>
	<rect id="p119" transform="matrix(0,-1,1,0,0,0)" height="20.3" width="20.3" y="294.9" x="-271.3" fill="#EEE"/>
	<rect id="p120" transform="matrix(0,-1,1,0,0,0)" height="20.3" width="20.3" y="294.9" x="-249.2" fill="#EEE"/>
	<rect id="p121" transform="matrix(0,-1,1,0,0,0)" height="20.3" width="20.3" y="294.9" x="-227.1" fill="#EEE"/>
	<rect id="p81" transform="matrix(0,-1,1,0,0,0)" height="20.3" width="20.3" y="263.1" x="-315.6" fill="#EEE"/>
	<rect id="p82" transform="matrix(0,-1,1,0,0,0)" height="20.3" width="20.3" y="263.1" x="-293.5" fill="#EEE"/>
	<rect id="p50" transform="matrix(0,-1,1,0,0,0)" height="20.3" width="20.3" y="231.2" x="-315.6" fill="#EEE"/>
	<rect id="p51" transform="matrix(0,-1,1,0,0,0)" height="20.3" width="20.3" y="231.2" x="-293.5" fill="#EEE"/>
	<rect id="p19" transform="matrix(0,-1,1,0,0,0)" height="20.3" width="20.3" y="199.4" x="-315.6" fill="#EEE"/>
	<rect id="p20" transform="matrix(0,-1,1,0,0,0)" height="20.3" width="20.3" y="199.4" x="-293.5" fill="#EEE"/>
	<rect id="p83" transform="matrix(0,-1,1,0,0,0)" height="20.3" width="20.3" y="263.1" x="-249.2" fill="#EEE"/>
	<rect id="p84" transform="matrix(0,-1,1,0,0,0)" height="20.3" width="20.3" y="263.1" x="-227.1" fill="#EEE"/>
	<rect id="p52" transform="matrix(0,-1,1,0,0,0)" height="20.3" width="20.3" y="231.3" x="-249.2" fill="#EEE"/>
	<rect id="p53" transform="matrix(0,-1,1,0,0,0)" height="20.3" width="20.3" y="231.3" x="-227.1" fill="#EEE"/>
	<rect id="p21" transform="matrix(0,-1,1,0,0,0)" height="20.3" width="20.3" y="199.4" x="-249.2" fill="#EEE"/>
	<rect id="p22" transform="matrix(0,-1,1,0,0,0)" height="20.3" width="20.3" y="199.4" x="-227.1" fill="#EEE"/>
	<rect id="p162" transform="matrix(0,-1,1,0,0,0)" height="20.3" width="20.3" y="326.8" x="-195.3" fill="#EEE"/>
	<rect id="p163" transform="matrix(0,-1,1,0,0,0)" height="20.3" width="20.3" y="326.8" x="-173.1" fill="#EEE"/>
	<rect id="p164" transform="matrix(0,-1,1,0,0,0)" height="20.3" width="20.3" y="326.8" x="-151" fill="#EEE"/>
	<rect id="p165" transform="matrix(0,-1,1,0,0,0)" height="20.3" width="20.3" y="326.8" x="-128.9" fill="#EEE"/>
	<rect id="p166" transform="matrix(0,-1,1,0,0,0)" height="20.3" width="20.3" y="326.8" x="-106.8" fill="#EEE"/>
	<rect id="p122" transform="matrix(0,-1,1,0,0,0)" height="20.3" width="20.3" y="294.9" x="-195.3" fill="#EEE"/>
	<rect id="p123" transform="matrix(0,-1,1,0,0,0)" height="20.3" width="20.3" y="294.9" x="-173.1" fill="#EEE"/>
	<rect id="p124" transform="matrix(0,-1,1,0,0,0)" height="20.3" width="20.3" y="294.9" x="-151" fill="#EEE"/>
	<rect id="p125" transform="matrix(0,-1,1,0,0,0)" height="20.3" width="20.3" y="294.9" x="-128.9" fill="#EEE"/>
	<rect id="p126" transform="matrix(0,-1,1,0,0,0)" height="20.3" width="20.3" y="294.9" x="-106.8" fill="#EEE"/>
	<rect id="p85" transform="matrix(0,-1,1,0,0,0)" height="20.3" width="20.3" y="263.1" x="-195.3" fill="#EEE"/>
	<rect id="p86" transform="matrix(0,-1,1,0,0,0)" height="20.3" width="20.3" y="263.1" x="-173.1" fill="#EEE"/>
	<rect id="p54" transform="matrix(0,-1,1,0,0,0)" height="20.3" width="20.3" y="231.3" x="-195.3" fill="#EEE"/>
	<rect id="p55" transform="matrix(0,-1,1,0,0,0)" height="20.3" width="20.3" y="231.3" x="-173.1" fill="#EEE"/>
	<rect id="p23" transform="matrix(0,-1,1,0,0,0)" height="20.3" width="20.3" y="199.4" x="-195.3" fill="#EEE"/>
	<rect id="p24" transform="matrix(0,-1,1,0,0,0)" height="20.3" width="20.3" y="199.4" x="-173.1" fill="#EEE"/>
	<rect id="p87" transform="matrix(0,-1,1,0,0,0)" height="20.3" width="20.3" y="263.1" x="-128.9" fill="#EEE"/>
	<rect id="p88" transform="matrix(0,-1,1,0,0,0)" height="20.3" width="20.3" y="263.1" x="-106.8" fill="#EEE"/>
	<rect id="p56" transform="matrix(0,-1,1,0,0,0)" height="20.3" width="20.3" y="231.3" x="-128.9" fill="#EEE"/>
	<rect id="p57" transform="matrix(0,-1,1,0,0,0)" height="20.3" width="20.3" y="231.3" x="-106.8" fill="#EEE"/>
	<rect id="p25" transform="matrix(0,-1,1,0,0,0)" height="20.3" width="20.3" y="199.4" x="-128.9" fill="#EEE"/>
	<rect id="p26" transform="matrix(0,-1,1,0,0,0)" height="20.3" width="20.3" y="199.4" x="-106.8" fill="#EEE"/>
	<rect id="p127" transform="matrix(0,-1,1,0,0,0)" height="20.3" width="20.3" y="294.9" x="-74.59" fill="#EEE"/>
	<rect id="p128" transform="matrix(0,-1,1,0,0,0)" height="20.3" width="20.3" y="294.9" x="-52.46" fill="#EEE"/>
	<rect id="p89" transform="matrix(0,-1,1,0,0,0)" height="20.3" width="20.3" y="263.1" x="-74.59" fill="#EEE"/>
	<rect id="p90" transform="matrix(0,-1,1,0,0,0)" height="20.3" width="20.3" y="263.1" x="-52.46" fill="#EEE"/>
	<rect id="p58" transform="matrix(0,-1,1,0,0,0)" height="20.3" width="20.3" y="231.3" x="-74.59" fill="#EEE"/>
	<rect id="p59" transform="matrix(0,-1,1,0,0,0)" height="20.3" width="20.3" y="231.3" x="-52.46" fill="#EEE"/>
	<rect id="p27" transform="matrix(0,-1,1,0,0,0)" height="20.3" width="20.3" y="199.4" x="-74.59" fill="#EEE"/>
	<rect id="p28" transform="matrix(0,-1,1,0,0,0)" height="20.3" width="20.3" y="199.4" x="-52.46" fill="#EEE"/>
	<rect id="p129" transform="matrix(0,-1,1,0,0,0)" height="20.3" width="20.3" y="294.9" x="-20.3" fill="#EEE"/>
	<rect id="p91" transform="matrix(0,-1,1,0,0,0)" height="20.3" width="20.3" y="263.1" x="-20.3" fill="#EEE"/>
	<rect id="p60" transform="matrix(0,-1,1,0,0,0)" height="20.3" width="20.3" y="231.3" x="-20.3" fill="#EEE"/>
	<rect id="p29" transform="matrix(0,-1,1,0,0,0)" height="20.3" width="20.3" y="199.4" x="-20.3" fill="#EEE"/>
	<rect id="p130" onclick="parent.seatMapClick(evt)" transform="matrix(0,-1,1,0,0,0)" height="20.3" width="20.3" y="326.8" x="-961.4" fill="#EEE"/>
	<rect id="p167" transform="matrix(0,-1,1,0,0,0)" height="20.3" width="20.3" y="326.8" x="-74.59" fill="#EEE"/>
	<rect id="p168" transform="matrix(0,-1,1,0,0,0)" height="20.3" width="20.3" y="326.8" x="-52.46" fill="#EEE"/>
	<rect id="p0" fill="#EEE" transform="matrix(0,-1,1,0,0,0)" height="26.48" width="26.48" stroke="#AAA" stroke-miterlimit="10" y="159.5" x="-964.6" stroke-width="2"/>
	<rect id="p191" transform="matrix(0,-1,1,0,0,0)" height="20.3" width="20.3" y="125.8" x="-195.3" fill="#EEE"/>
	<rect id="p301" transform="matrix(0,-1,1,0,0,0)" height="20.3" width="20.3" y="-1.566" x="-961.5" fill="#EEE"/>
	<rect id="p339" transform="matrix(0,-1,1,0,0,0)" height="20.3" width="20.3" y="-1.578" x="-52.46" fill="#EEE"/>
	<rect id="p327" transform="matrix(0,-1,1,0,0,0)" height="20.3" width="20.3" y="-1.583" x="-347.4" fill="#EEE"/>
	<rect id="p94" transform="matrix(0,-1,1,0,0,0)" height="20.3" width="20.3" y="294.7" x="-873" fill="#EEE"/>
</svg>
