<?xml-stylesheet type="text/css" href="../css/app.css"?>
<svg id="big-canada-map" xmlns="http://www.w3.org/2000/svg" width="100%" height="100%" viewBox="960 4 1300 1260" version="2" xmlns:xlink="http://www.w3.org/1999/xlink">


  <defs>
  	<!-- Optional glow for map paths (not currently used) -->
    <filter id="glow">
	<feColorMatrix type="matrix" 
		values=
            "0 0 0 .1   0
             0 0 0 .1 0 
             0 0 0 .1 0 
             0 0 0 .9   0"/>
            <feGaussianBlur stdDeviation="5" result="coloredBlur"/>
            <feMerge>
                <feMergeNode in="coloredBlur"/>
                <feMergeNode in="SourceGraphic"/>
            </feMerge>
    </filter>
     
     <!-- This is a radial gradient fill option for the map (not currently used) -->
     <radialGradient id="rad-grad">
      <stop offset="10%" stop-color="gold"/>
      <stop offset="95%" stop-color="green"/>
     </radialGradient>

     <!-- This is the stipled, coloured texture for map base -->
    <pattern id="map-texture-base" patternUnits="userSpaceOnUse" width="100" height="100">
    	<image xlink:href="map-texture-base.png" x="0" y="0" width="100" height="100" />
  	</pattern>

	<!-- This is the stipled, coloured texture for map hover -->
  	<pattern id="map-texture-hover" patternUnits="userSpaceOnUse" width="100" height="100">
    	<image xlink:href="map-texture-hover.png" x="0" y="0" width="100" height="100" />
  	</pattern>
  </defs>


	<g id="largeCanadaMap" fill="#D1C8B1">
		<g id="AB" onclick="parent.provinceClick(evt)">
			<path id="ab-0" d="M1260,1028c-54-14-48-12-51-19l-3-6,2-11.1c2-11.6,2-14.6-1-20.6-1-2.1-4-7.9-6-13-3-5-6-12-7-15.5s-3-8.3-5-10.7-3-6-4-8c0-2-2-5.1-3-6.9-2-1.8-3-3.7-3-4.3s-1-2.4-2-4c-1-1.7-3-5.8-3-9.7-1-4.2-2-8-3-10.2-2-1.9-3-4.7-4-6.2,0-1.5-3-3.8-4-5-4-2.3-5-5.9-3-7.3,1-0.3,1-3.1,1-6.2,0-5.4,7-24.2,51-146.9l4-11.1,22,7.4c13,4,31,9.9,42,12.9,10,3.1,28,8.5,40,12s22,6.5,23,6.7c0,0.6-3,15.3-4,16-1,0.4-3,1-4,1.4-2,0.6-13,11-13,12.9,0,0.6,2,1.8,4,2.7,3,1.7,3,1.7,6-0.3,2-1.1,3-3,4-4.1,0-1.1,0-1.8,1-1.6,0,0.3-2,7.8-4,16.8-5,21.3-10,44.3-18,75.9-3,14-7,30-8,35.5-7,27.7-13,52.5-16,66-17,71.5-16,65.5-17,65.5,0,0-7-2-14-4z"/>
	  	</g>
	  	<g id="BC" onclick="parent.provinceClick(evt)">	
			<path id="bc-0" d="M1047,975.7c-6-4-16-16.6-16-20.9,0-2.4-1-3.2-3-4.1-3-1.1-5-5-6-11.2-1-1.7-2-4.6-3-6.5-2-1.9-3-5.5-4-8s-4-7.5-6-11.3c-3-4.1-5-9.2-6-13,0-3.4-1-7.7-2-9.5-1.4-3.1-1.3-3.4,2-5.7,1-1.3,3-2.4,4-2.5,2,0,8,5.7,18,16.9,3,3.6,6,6.9,7,7.5,0,0.6,2,3.1,4,5.6s4,4.7,4,5c1,1.2,4,10,5,15.9,0,5.6,1,7.2,5,12.9,6,7.6,6,8.8,7,16.6,1,3.2,2,7.5,3,9.6,0,2.1,1,4.1,0,4.4-1,1.5-10,0.4-13-1.7z"/>
			<path id="bc-1" d="M1206,1013c-1,0-22-6-38-11-6-2-64-23.8-88-33.2-4-1.6-9-3.4-10-4-4-1.4-5-2.4-5-7.1,0-2.5-1-4.3-2-5.5-6-4.8-8-7.2-8-9.1,0-1.2,0-2.1-1-2.1-2,0-6-5.3-6-9.9-1-7.5-5-14-11-20-5-5.4-5-5.5-4-10.3,0-3.9,0-4.8-1-4.8s-2-0.4-2-0.8-3-2-5-3.5c-3-1.5-5-3.3-5-4s0-2.1-1-3.2v-15.2c0-9,0-9.3,3-11.8,3-2.3,3-2.8,2-5.7-1-1.7-1-4.9-1-7,0-3-1-5.4-4-9.7-3-4.9-4-6.4-4-9.2,1-1.9,2-4.2,3-5.1,2-1.9,2-3.5-1-10.3-2-3.4-2-5.9-2-17,0-12.5,0-13,2-15.5,2-1.4,5-3.4,8-4.5,7-2.7,13-7.8,13-11.6,0-4,2-8.7,6-12.8,3-3.1,3-4.1,3-9.6,0-5.6,0-6.4-3-8.8-3-3.1-9-14.4-11-20.9-1-3.9-1-6,2-15.7,2-10,2-12,1-16.9,0-3.2-1-10-2-15.2,0-5.2,0-10.4-1-11.6,0-1.2,0-3.9-1-6,0-2.1-1-9.5-3-16.4s-3-13.5-4-14.7c0-1.4-1-2.9-4-3.8-7-3-8-2.9-10,0.3-1,2.2-3,3.7-7,5.3-4,1.2-8.3,3-10.4,4-2.2,1.1-4.1,1.9-4.2,1.9s0.2-1.5,0.6-3.2c1.4-5,0.5-17.1-1.4-20.1-2.1-3.1-1.8-12.4,0.3-11.9,0.8,0.2,10.9,6.5,22.1,14.1,32,20.7,67,41.8,83,50.6,9,4.3,16,8.1,16,8.5,3,1.9,34,17.5,46,22.8,7,3.3,22,9.7,34,14.2,12,4.6,22,8.6,22,9,1,0.4,1,1.8,0,3.1,0,1.3-6,15.7-12,31.9-5,16.2-12,34.2-14,40-23,63-28,77.3-28,82.3,0,3-1,6.2-1,7.4-3,3.1-1,7.4,2,9.8,5,3,11,14.2,12,21.2,0,3.8,1,7.2,3,10.2,2,2.5,3,4.9,3,5.5,0,0.5,1,2.1,2,3.5,2,1.5,3,4.7,4,7.4,1,2.6,2,5,2,5.3,1,0.8,6,9.4,6,12.9,1,1.7,4,9.5,8,17.4,4,8.4,7,15.7,7,17.5,0,1.7,0,7.3-1,12.5-2,10.1-2,14.1,1,18.1,1,2,1,3,0,2z"/>
			<path id="bc-2" d="M976.2,824.7c-4-9.4-5.5-20.6-4.9-36.6,0.4-9.3,1.1-14.9,1.9-15.8,0.7-0.9,1.3-2.3,1.3-3.2,0-2.6,4.3-2.5,8.3,0.2,4.8,3.3,11.2,9.6,11.2,11.1,0,0.7-4,5.4-9,10.6-10.5,11-10.7,11.5-6.5,26.5,1.4,5,2.5,9.8,2.5,10.7,0,3.5-2.6,1.6-4.8-3.5z"/>
		</g>
		<g id="MB" onclick="parent.provinceClick(evt)">
			<path id="mb-0" d="M1453,765.8l-1,6.4v7.8c-1,0.8-1,4-2,7v7c-1,0.8-2,7.3-2,14.4-2,12.2-2,13.1-1,15.8,2,2.8,2,3-1,6.5-1,1.9-3,4.3-4,5.2,0,0.9-1,7.5-1,14.6-1,7.1-1,14.8-1,17-1,2.2-1,8.1-1,13-1,4.9-1,11.7-1,15-2,13.7-2,19.4-2,27-1,4.4-1,10.3-2,13,0,2.7,0,9.5-1,15,0,5.5,0,11.8-1,14v14.5c-1,5.8-1,12.1-2,14,0,1.9,0,9-1,15,0,6,0,12-1,13,0,3-1,25-1,32l-1,7h6c10,1,19,2,22,2,1,1,5,1,8,1,6,1,9,2,18,3,3,0,10,1,15,1s14,1,20,1h10v-5c1-2,1-10,2-17,0-6,0-15,1-18v-22c2-29.1,2-32,4-36,2-2.1,9-10.2,16-18.1,8-7.9,16-16.6,18-19.4,3-2.7,5-5.5,6-6.1,9-10.8,14-16.2,19-22.4,3-4.1,9-10.9,13-15.1s9-9.4,10-11.5c2-2.2,6-6.4,9-9.4s5-6,5-6.6c0-1.1-5-3.2-10-4-7-1.1-9-1.8-10-3.4-1-1.4-2-1.8-7-1.7-3,0.1-6,0.7-7,1.3-1,1.2-12,2.7-14,1.8-1-0.4-2-1.2-1-2.6,1-2.2,1-3.4-2-16.8-2-9.6-3-12.5-4-18,0-6.3-3-8.2-13-10.4-7-1.4-9-2.3-10-4-1-2.3-1-10.2,0-20.8l1-6.8-6-0.1c-3-0.1-5-0.2-6-0.3,0-0.1-4-0.6-8-1s-8-0.9-9-1.1c-1-0.1-5-0.6-8-1-4-0.4-8-0.9-9-1-2-0.2-5-0.6-9-1-3-0.3-9-1-14-1.5-4-0.5-10-1.1-14-1.4-3-0.4-8-0.9-10-1.2l-5-0.6zm29,171.9c4,0.1,6,1.9,8,5.7,1,2.2,3,4.3,3,4.6,2,1.3,6,13.5,6,14.8-1,0.9,1,6.4,3,10,0,1.2,1,4.6,1,7.4,0,5.6,3,17.9,6,22.8,1,3,2,6,2,13,0,9,0,10-2,10-1,0-3,1-4,3-2,2-4,3-6,1s-1-9,1-12c0-2,1-4,1-5,1-2,1-4,2-5,2-2,2-4,0-6-2-1-2-1-3,1-2,2-4,3-4,1,0-1,1-3,1-4.5,3-7.5-2-13.9-8-11.7-2,0.9-3,0.7-5-1.1-1-1.2-2-4.3-3-6.9s-3-6.2-4-8c-2-2.3-3-4.2-2-6.3,0-2.7,0-3.2-5-5.6-6-3.4-9-2.4-9,3.5,0,2.3,0,6.4-1,9.1,0,13.7,0,13.8,4,17,8,7,9,7.9,10,14.5,1,3,2,7,2,9s1,6,2,9c4,6,4,12,1,12-4,1-5,1-6,0,0-1-3-14-5-25-1-6-3-8-10-12.5-5-3.6-8-6.4-7-8.3v-3.1c0-1.1,1-2.6,1-3.3,1-0.9,2-3.7,2-8,0-6.6,0-6.6-4-8.8-4-2.4-6-4.6-6-8.4,0-2.1,0-2.6,2-2.6,4,0,5-3.2,3-6.3-1-1.4-2-3-2-3.6,0-1.4,5-3.4,7-3.3,3,0.1,8,5,8,7.2,0,0.9,1,2.6,2,3.8l3,2.2,1-3.7c2-6.1,6-11.3,10-12,1-0.4,3-0.6,4-0.6z"/>
		</g>
		<g id="NB" onclick="parent.provinceClick(evt)">
			<path id="nb-0" d="M2030,1116c-3,0-5-3-7-7-1-2-2-3-3-4-5-1-11-17-11-27,0-3-1-5-2-7-4-3-9-6-13-6h-3v-6-7c0-1,3-1,6-1,8,0,12-2,16-5,2-2,6-4,10-5,7-2,8-2,12-1,3,2,3,2,5,0,4-4,16-8,16-5,0,1-1,3-2,4-2,4-1,12,1,15,1,1,2,4,2,6,1,2,3,5,6,8,4,4,5,4,11,4,3,0,6,0,6,1,1,0-1,2-4,5s-6,8-8,11c-3,7-16,20-20,20-2,0-3,1-4,3-2,4-8,6-14,4z"/>
		</g>
		<g id="NL" onclick="parent.provinceClick(evt)">
			<path id="nl-0" d="M2141,1006c-3-3-3-7.4,0-11.3,3-4.2,4-9.3,1-10.2-3-0.8-3-2.9,0-7.2,2-3.1,2-4.3,2-12.1-1-14-1-30.4,0-46.7,1-1.1,1-5.6,1-10,1-9.2,3-12.6,10-18.1,4-3,5-3.4,7-2.3,3,3.1,4,6.7,4,18.9-1,6.5-1,12.2-1,12.7-1,0.5-1,3.6-1,6.8l-1,6,2-3c2-1.7,3-3.3,3-3.7,0-1.5,4-1.9,7-0.7,4,1.4,4,1.6,4,6.7v3.2h5c3,0,5-0.4,5-0.9,1-0.4,3-1.4,6-2.1,2-0.8,7-2.4,9-3.7,5-2.3,10-2.3,14-0.2,2,1.1,3,6.5,2,8.9-1,1.7-1,2.3,1,4,1,1.7,2,1.8,7,1.2,6-1,7-0.7,7,2.7,0,2.8-2,6.4-5,9.3-1,1-2,1.8-1,1.8,0,0,1,1.5,1,3.4s0,4.1,1,5c0,1.8,2,2.1,2,0.4,0-1.8,5-7.8,7-7.8,0,0,1,1.8,2,4,1,4.6,3,4.9,7,1.8,2-1.2,3-1.8,4-1.4,0,0.4,1,3.8,1,7.4v10.4c0,5.4-4,11.3-8,11.6-2,0.2-3-0.3-4-2.3-2-3.1-2-3.1-4,0-3,5.1-5,1.9-6-8.7-1-7.7-2-10.8-4-10.8-1,0-1,1.6-1,3.7,0,2.9-1,4.3-4,7.4-3,3.3-4,4.4-5,11-1,9.9-4,11.9-11,12.9-7,0-8-2-3-6.9,3-2.7,4-4,4-7.2,0-3.7,0-3.9-2-2.8-4,2-8,2.9-9,1.9-2-1-3-0.2-13,5.8-3,1.8-7,3.5-9,3.8-1,0.2-4,0.7-6,1s-8,2.4-13,4.4c-6,2-11,4-12,5l-3-3z"/>
			<path id="nl-1" d="M2017,934.5c0-0.2-2-0.5-4-0.8s-5-1.3-6-2.2c-2-1.4-3-1.7-8-1.3-7,0.7-8,0.3-9-3.5-1-6.4-1-7.2-1-8.4,0-0.6-1-1.8-2-2.7-1-1.4-1-1.3-4,0.4-2,1.1-4,2-6,2s-6-3.5-4-4.5c1-0.7,1-6.6,0-10.1,0-1.4-2-2.8-4-3.8-8-2.9-15-14.9-13-19.6,1-1.1,2-2,2-2,1,0,3-3.8,3-7.3,1-1,2-2.7,3-3.6s2-2.8,3-4.3c1-2.5,1-2.6,5-1.7,3,0.5,6,1.7,7,2.7,4,2.4,7,1.7,10-1.9,1-2.9,2-3,7-2.3,2,0.3,5,0.6,6,0.6,2-0.1,2,0.6,2,3.4-1,1.9-1,3.6-1,3.7-5,3-8,6.1-8,7.4-1,1-2,2.7-4,3.8-4,2.3-4,3.5-1,6,2,2.1,8,1.4,10-1.4,3-3.2,8-5,11-3.9,5,1.4,9-0.3,11-4.9,1-3.9,2-9.1,0-10.6,0-0.5-2,0-3,1.2-1,1.3-3,2.1-5,2.1-8,0-9-2-4-10.7,2-3.1,3-6.6,3-7.9,0-3-3-10.6-5-12.3-1-0.7-2-2.1-2-3,0-2.8-5-11.5-8-14.3-2-1.9-4-4-4-7,0-2.4-1-7.2-2-10.8s-1-9.4-1-13c0-7.5-2-11.6-6-12.4-1-0.3-4-1.4-6-2.5-3-2.3-4-5.3-1-8.8,1-1.5,1-2.9,0-4.5-1-2.4-1-3.3,0-8.7,1-3.4,1-3.6-8-3.2-3,0.1-4-0.1-4-0.4s0-3.8-1-7.8c-1-5.6-2-7.3-4-7.5-1-0.2-2-1.1-3-2-1-2.3-5-17.3-5-17.9,1-1.1,13,9.2,17,14.8,3,3.2,5,5.9,6,5.9s3,1.3,4,2.9,4,3.9,5,5c3,1.4,5,3.8,6,7.1,1,3.2,3,5,4,5s2,1.5,4,3.4c1,2.6,3,3.5,6,4s4,1.2,6,4.9c1,2.3,3,6,3,8.2,0,3.7,1,4,5,5.2,3,0.8,5,2.2,6,3.2,2,1.7,2,2.3,1,6.8-2,4.2-2,5.3,0,7.4,0,1.3,1,3.5,1,4.9,1,2.2,2,3,12,6.3,6,2,11,3.7,12,3.7s4,1.9,6,4.1l4,4.2,9,0.4c5,0.2,10,1.1,12,1.9,4,1.5,7,0.9,10-2.1,1-1,2-0.8,8,0.7,4,1.1,8,2.5,8,3,1,2,0,5.7-3,6.8-2,0.6-5,3.9-8,7.2s-7,7.5-9,9.2c-1,1.8-5,5.4-7,8.2-5,5-7,11-5,12,3,0.8,13-10,14-13.8,0-2.4,2-5.9,8-11.6,7-7.4,8-8.2,11-8.2s4,0.6,6,3.3c2,2.8,3,3.2,5,2.6,5-1.3,10-0.9,12,1,1,1,5,3.3,8,5.1,4,1.9,7,3.4,7,3.5,0,0.2,0,1.4-1,2.9-2,3.7,0,9.7,4,14,4,3.3,8,10.4,8,12.6,0,1.7-7,12.1-10,15.7l-3,3.2-4-5.2c-3-2.9-5-5.5-5-5.9-1-0.3-3,0.2-5,1.1-2,1-6,2.4-9,3.1-3,0.6-8,2.5-12,4s-12,4.7-18,6.9c-7,2.3-14,5.1-16,6.2-10,4-31,11.1-34,11.8-4,0.6-6,0.2-10-2-3-1.5-6-2.4-7-2.1,0,0.4-1,2.5-1,4.7,0,4.9-1,13.9-2,14.4,0,0.5-5,1-5,0.6z"/>
		</g>
		<g id="NS" onclick="parent.provinceClick(evt)">
			<path id="ns-0" d="M2064,1149c-6-2-9-5-11-13-2-4-2-7-1-8,1-4,8-14,12-19,3-2,5-5,6-6,0-1,2-2,3-2,3-1,12-7,12-8s-4,1-10,4c-9,5-8-4,2-15,5-5,6-6,9-6,10,0,20-1,24-4,2-1,4-2,5-1h6c5,1,10,3,11,7,1,2,1,3-5,9-4,3-7,7-8,8-4,3-12,10-14,11-2,0-4,2-6,5-2,5-3,5-6,5-2-1-3,0-4,2,0,1-1,3-1,3,0,1-1,4-3,8-2,6-5,9-10,14-3,4-6,7-6,7s-3-1-5-1z"/>
			<path id="ns-1" d="M2131,1073c-1-1-4-4-6-7-4-4-5-5-4-6,0-1,2-6,4-11,3-10,7-17,8-17,2,0,4,4,4,8,0,6,1,8,4,8,3,1,8,6,8,8,0,1-1,5-3,7-2,4-4,5-6,5-1,0-3,1-4,3-2,3-3,3-5,2z"/>
		</g>
		<g id="NT" onclick="parent.provinceClick(evt)">
			<path id="nt-0" d="M1172,374.2c-2,0-4,0.3-8,0.8-5,0.6-10,1.4-11,1.7-1,0.4-1,1.9-1,5.3,1,5.7,0,7.1-3,3.5,0-1.4-2-2.5-2-2.5-2,0-16,26.3-19,34.5-2,4.9-4,10-5,11.2-2,3.5-1,4.5,5,9,14,9.5,15,10.5,9,22.3-2,4.1-4,9.4-4,11.7-1,3.9,0,4.4,3,7.3,2,1.7,4,3.5,4,3.9-1,0.4-1,3.3-1,6.5,0,6.2-2,8.2-6,9.2-2,0.7-4,3.2-4,6.8,0,1.4,0,2.6-1,2.6,0,0-1,1.2-1,2.6-1,1.9-1,3.2,1,4.8,1,1.6,2,3.6,2,6.7,0,2.6,1,6.4,2,9.3,2,3.4,3,6,2,8.3,0,2.1,0,4.5,2,7.2,2,3.9,2,4,0,9.9-2,7.9-5,21.1-5,29.7-1,3.9-1,7.9-2,9,0,1.3,1,2.9,2,4.5,3,3.1,4,6.9,6,14,1,6.4,3,10.6,6,13.8l2,2.2-2,2.3c-1,1.5-2,3.6-2,6.1,0,2,0,4.6-1,5.7-1,1.8,0,2.3,5,4.8,4,1.6,8,4.1,10,5.5,3,2.1,5,2.5,8,2,4-0.8,3-1.8,3,14.4v12.4l12,4.4c35,14.4,77,28.8,118,40.4,12,3.4,28,8.1,36,10.5s16,4.6,18,4.9c1,0.3,9,1.9,18,3.6,8,1.7,16,3.3,17,3.5,2,0.3,8,1.4,13,2.6,6,1.1,12,2.2,14,2.5,1,0.3,9,1.8,16,3.4,16,3.2,22,3.6,22,1.8v-3.2c1-1,1-5.7,2-10.5,0-4.7,0-9.7,1-11.1v-9c1-10.2,3-26.5,3-31.5,1-1.7,1-7.1,2-12,0-4.9,0-9.7,1-10.5,0-0.8,0-5.3,1-10,0-4.7,1-12.2,1-16.8,1-4.5,1-8.7,1-9.2-1-0.4-7-4.2-15-8.3-17-8.7-34-17.6-46-24.4l-9-4.8-6-10-7-10-11-2.4-11-2.4-10-13.1c-5-7.2-14-18.7-19-25.6s-14-20.3-21-29.8c-7-9.6-14-18.5-15-19.8-1-2.2-1-2.9,2-11.6,13-32.6,13-32.5,6-40.6-1-2.5-3-4.9-3-5.4,0-0.4,0-0.8-1-0.8s-2-0.8-4-1.9c-1-1-4-2.1-6-2.3-4-0.4-5,0-9,2.9-3,2.9-4,3.2-6,2.3-4-1.2-4-2,0-5.5,2-1.5,3-3.3,2-3.9v-6.3c-1-8.6-2-8.7-11,0-4,4.3-7,7.7-8,7.7,0,0-3-3.3-4-4.2v-13.6c0-12.8,0-12.9-3-14-3-1.7-5-1.5-8,0.8-2,1.5-4,2-7,1.9-3-0.2-5-0.6-4-1.3,0-0.6,1-2.4,1-3.9,1-2.5,0-3-4-5.1-5-2.4-12-2.9-18-1.3-1,0.3-7,0.9-13,1.2-8,0.4-11,1-11,2.1-1,0.8-2,1.4-4,1.4-3,0-3-0.2-3-4.2,0-4.9,0-6.5-4-6.6zm83,140.2c26,0.1,28,0.5,28,4.6,0,1-2,3.6-5,5.8-3,2.7-4,4.4-4,5,2,1.2,15,6.8,22,8.9,5,1.4,5,1.5,4,4.6,0,3.5-2,5.7-3,5.7s-3,1.2-5,2.6l-4,2.6-6-2.7c-3-1.5-6-3.1-7-3.7-3-1.3-4,0.3-6,6.9-2,6.2-3,6.6-11,9.2-3,1.2-6,2.1-7,2.1-2,0-1-2.9,2-6.2,6-6.9,6-6.8,2-6.8-2,0-4,1-6,2.6-5,4.1-9,4.7-13,2.1-2-1.2-4-3.3-5-4.7-1-2.3-1-2.9,6-9.2,4-3.7,9-7.7,11-8.9,3-1.1,5-2.9,5-3.9,1-2.9-3-6-8-6.1-2,0-6-1.1-10-2.2-5-1.8-6-2.6-7-4.6,0-1.4,0-2.8,1-3.1,1-0.4,12-0.6,26-0.6zm34,128.6s2,2.1,4,4.6,5,6,7,7.7c5,4.9,9,9.3,12,13.5,2,3.2,3,3.9,8,5.3,7,1.6,8,1.6,13,0.1,4-1.2,7-2.6,8-4.5,3-3.8,7-5.5,13-5.9,5-0.3,6-0.3,5,2.5,0,4-4,8.5-8,9.7-2,0.6-6,2.9-8,5.2-3,2.2-7,5.4-11,7s-8,3.9-10,5c-3,1.1-5,1.8-7,1.5-1-0.3-3,0.3-5,2.3-2,1.5-5,3.5-7,4.4-3,0.9-5,1.5-7,1.4-18-1.7-20-2.3-29-10.5-8-7.4-8-9.3,1-9.3,3,0,6,0.5,7,1,2,1.2,5,0.1,9-3.8,2-2.1,4-2.6,7-2.3,5,0.3,7-1.1,7-4.3,0-3-4-14.7-8-22.2-2-5.6-3-8.4-1-8.4z"/>
			<path id="nt-1" d="M1396,451c-8-2.1-19-5.4-26-7.4-6-2-15-4.6-20-5.8-7-2.2-7-2.3-4-2.9,2-0.3,8-0.3,14-0.1,9,0.4,12,0.9,16,2.8,5,2.3,17,5.9,18,5.1,0-0.2-3-2.9-6-6.1-6-5.9-11-8.6-16-8.6-3,0-19-4.2-25-6.7-5-1.9-5-2.3-7-7.9-1-3.2-2-6.4-2-7.1,0-1.1,5-2.8,18-6.4l4-1.2-3-0.8c-2-0.5-5-0.9-6-1.1-3-0.3-7-4.8-6-7.4,1-0.7,0-1.7,0-2.1-1-0.5-2-2.1-3-3.6-3-3.7-2-7.4,2-12,4-4.2,6-6.9,6-9.4,0-5.1,15-13.2,30-16.2,5-1.1,12-2.3,14-2.6,5-0.6,5-0.5,6,2.3,1,3.6,0,9.3-3,15.2-1,2.3-2,4.4-2,4.7,1,0.3,3-1.1,5-3.1l5-3.8,6,3.6c4,2,8,4.5,9,5.6l2,2.1-2,4.8-2,4.8,4-0.9c3-0.5,5-1.2,5-1.6,1-0.4,0-2.7-1-5,0-2.4-1-4.5-1-4.6,4-2.7,6-3.4,6-2.8,1,0.9-21,88.4-22,89.3,0,0.4-6-1-13-3.1z"/>
			<path id="nt-2" d="M1297,385.9c-1-0.8-1-5.3-2-10-1-7.9-1-9.5-6-17.9-4-5.1-6-9.8-6-10.4,0-1.5,3-4.9,6-6.8,1-0.9,5-5.6,8-10.4,3-4.9,6-9.8,7-10.9s6-6.4,10-11.8c7-9.4,7-10.1,7-15.5v-7c0-1.8,3-5.2,4-4.7,1,0.2,3,0.6,5,0.8,2,0.3,6,1.4,9,2.6,3,1.1,7,2.5,10,3.1,3,0.8,4,1.6,5,4.3,1,1.7,4,5.7,6,8.7,6,5.4,6,5.4,12,5.3,8-0.3,9,1,14,15.2,6,18.2,5,20-10,23.7-7,1.7-14,4.7-16,6.8,0,0.3-2,1.2-4,1.8-1,0.7-4,2.3-5,3.5s-6,4.5-9,7.2c-6,4-8,6.4-11,11.7-1,3.7-4,7.3-5,8-2,0.6-2,1-2,0.8s-2,0-9,1.6c-1,0.3-6,0.8-10,1.1-6,0.4-8,0.2-8-0.8z"/>
			<path id="nt-3" d="M1413,310.9c-3-2.8-5-5.9-5-6.9,0-2.4,4-4.8,10-6.1,10-2.1,13-5.4,5-5.4-3,0-5-0.5-6-2.5-2-2.4-2-2.4-4-0.7-2,2.2-8,2.9-11,1.3s-12-12.7-13-15.4c0-2.5,2-6.2,5-6.2,0,0,1-0.3,1-0.8,0-3.1,1-4.8,3-7.1,2-1.5,3-3.6,3-4.7,0-2.6,6-9.4,8-9.4,1,0,3-1.1,3-2.5,2-2.1,3-2.5,7-2.5,6,0,10,2.8,10,7.6,0,2.8,1,3.8,4,5.9,5,3.4,7,8.5,8,16.4,0,7,1,9.1,6,9.1s5,0.7,2,14.2c-3,9.4-4,12.8-5,12.8s-4,1.8-7,4c-5,3.7-6,4-13,4h-7l-4-5.1z"/>
			<path id="nt-4" d="M1382,266.3c-1-0.2-2-2.1-3-4.1-1-5,1-7.7,8-10.8,7-2.7,9-3,11-1.2,2,2.4,1,5-3,7.6-2,1.5-5,4.2-7,6-2,1.7-4,3.1-4,3.1,0-0.1-1-0.3-2-0.6z"/>
			<path id="nt-5" d="M1373,249.4c-1-0.8-2-2.6-2-4,0-2.2,0-2.4-5-2.4-9,0-12-4.4-8-11,2-2.5,4-3.7,7-4.5,2-0.7,7-2.4,9-3.9,3-1.4,6-2.4,6-2.1s4-2.5,8-6.2c9-8.7,11-9.4,18-9.3,4,0.1,8,0,9-0.3,3-0.5,8,1.6,8,3.8,2,5,0,10.6-5,13.3-1,0.6-1,2.7-2,6,0,4.8-1,5.3-5,7.7-2,1.4-4,3.4-5,4.5-1,2.4-5,3.5-7,2-2-1.9-1-8.7,1-10.7,1-1,2-2.1,2-2.5,0-1.2-4,2-14,12-9,9.6-12,11-15,7.6z"/>
			<path id="nt-6" d="M1450,222c-3-1.4-4-2.7-6-7-1-2.9-2-5.9-2-6.6,0-0.8-1-1.9-2-2.6-5-3.3-8-12.8-3-12.8,2,0,5,3,5,4.9,0,1,1,1.1,3,0.6,4-0.9,22-1.8,24-1.1,1,0.4,1,1.4,0,4.8-1,2.4-1,5.2-2,6.3-1,7.6-2,11.6-4,13-3,2.4-8,2.6-13,0.5z"/>
			<path id="nt-7" d="M1468,193.1c0-0.5-1-1.4-3-2.1-2-0.6-4-2.1-5-3.1-1-1.4-2-1.8-4-1.4-2,0.3-3,0.2-3-0.4-2-2.5,6-9.1,8-7.5,1,0.3,2,0,3-0.6,1-1.1,8-0.9,9,0.2,1,0.9-3,15.8-4,15.8,0,0-1-0.4-1-0.9z"/>
		</g>
		<g id="NU" onclick="parent.provinceClick(evt)">
			<path id="nu-0" d="M1472,509.1c-4-1.2-12-5.5-17-10.2-2-1.4-5-3.4-7-4.4s-4-2.4-4-3.2v-2.5c-1-2.3-5-2.1-5,0.2-1,2.9-6,5.2-13,5.8-4,0.2-7,1.1-8,1.8-3,2.9-8,3.7-22,3-22-1-28-2.1-28-4.8,0-0.7,0-3.1-1-5.3v-9.9c-1-6.8-3-9.2-8-10.1-6-1-18-9.5-18-12.7v-1.6c0-0.4-1-4.3-2-8.7s-2-8.3-2-8.7c0-0.7,0-0.7,43,12.1,17,5.1,31,9.1,32,8.9,0-0.2,5-20.4,11-44.8,6-24.5,11-45.2,12-46,0-0.8,2,3,4,8.5,4,9.7,4,10.3,4,19.7-1,11.5,0,14.5,4,11.1,1-1.7,2-3.1,1-9.4v-19.8l-1-12.4,3-3.3c3-3.1,4-3.3,7-2.4,3,0.5,5,2,7,3.7,2,2.7,2,2.7,1,0.2-1-1.5-2-4-3-5.6-1-4.3,2-7.9,8-9,5-1.1,9,0.8,13,6.2,4,4.9,3,9.1-4,17.6l-5,6.8v12.5c0,14.1,1,22.3,3,28.1,1,3.7,1,4.4-1,9.3-2,3.9-2,6.4-2,9,1,5.5,8,13.7,17,21.4,10,8.8,14,15.6,12,21.9-1,2.9-1,3-7,2.3-3-0.3-6-1-6-1.5-1-0.5-2-0.9-3-0.9-2,0-2,3.3,2,8.5,5,8.6,4,14-4,17.8-4,1.8-7,2-13,0.8z"/>
			<path id="nu-1" d="M1751,962.2c-5-2-6-2.8-6-4.8,0-2.8,1-3.1,7-3.8,5-0.5,6-0.3,8,2.7,4,4.1,4,8,0,8.2-2,0.1-6-0.9-9-2.3z"/>
			<path id="nu-2" d="M1542,772.6c0-0.2-4-0.7-8-1.1-5-0.4-9-0.8-9-1,0-0.1-4-0.6-8-1-5-0.4-9-0.8-9-1,0-0.1-3-0.6-7-0.9-4-0.4-9-0.9-11-1.2-9-1-13-1.4-24-2.5-12-1.1-13-1.5-13-2.7,1-0.4,1-5,2-10.2v-11c1-0.8,1-5.3,1-10,1-4.7,1-9.6,2-11v-9.5c1-8.4,2-16.4,3-22.5v-9.5c2-18,2-22.3,4-32v-8.3c0-1.9-1-3-7-6.5-11-5.4-29-15.2-44-23-6-3.3-13-7-16-8.2-3-2.2-5-4.8-13-17.2l-4-5.8-11-2.4-12-2.4-5-7.6c-3-4.2-15-20.2-26-35.6s-23-31.6-26-35.9c-3-4.4-6-8.4-6-9,0-1,13-36.7,14-37.4,1-1.5,10,7.2,14,13.3,3,4.1,10,10.4,15,12.5,2,0.9,3,0.9,5,0,2-1,3-0.7,7,2.5,2,1.9,5,4.8,6,6.3,2,3.3,6,11.9,6,13.9,0,2.6-3,4.1-8,4.8s-10,2.9-10,4.8c0,0.6,1,2.5,2,4.3,2,2.7,4,3.7,12,6.3,16,4.8,19,5.3,27,4.1,3-0.6,7-1.6,9-2.2,2-1.1,2-1,4,1.2,1,1.3,4,6,8,10.3,7,10.3,10,15.3,9,19.1,0,2.4,0,2.7,1,1.6,1-0.9,1-5.4,0-11.7v-10.2l10-5.2c6-3.1,11-6,11-7,1-1.6,1-1.6-3,0-3,1-7,2.4-10,3.1-5,1.3-5,1.2-8-0.7-7-5-1-14.6,9-15.2,2-0.2,6-1,9-2,3-0.9,7-1.5,8-1.3,4,0.4,6,4.1,7,8.6,0,1.7,0,4.6,1,6.5,3,4.8,11,12.1,13,12.2,1,0.1,3,0.2,3,0.4,1,0.1,2,0.3,3,0.3,0,0.1,3,3.1,5,6.6l4,6.3,6,0.7c4,0.3,9,0.6,13,0.6s10,0.9,13,2c4,1.1,7,2,7,2s1-1.6,1-3.6c0-2.1,1-5.4,1-7.6,1-2.1,2-5,2-6.5,0-2.5,0-2.6,5-1.9s12,2.8,18,6.2c3,1.5,6,2.8,6,2.9,0,0.3-4,14-6,20.3,0,0.7,1,1.7,2,2.2,2,0.5,3,2.3,4,4.2l1,3.3,1-3c0-1.9,0-4.1-1-6-1-1.8-1-5.8-1-9.8-1-7.2,1-8.9,4-8,4,1,11-2.6,14-7,2-3.4,3-5,3-9.7,0-4.4,0-6.1-2-7.5-2-2.1-3-9.3-1-11.3,2-1.7-4-7.3-10-9.2-3-1.1-5-2.5-8-6.8-3-4.7-3-6.3-3-11.3,0-3.2,0-6.7,1-7.8,1-1.5,0-3.3-2-8.2l-2-6.2,2-5.6c1-4.7,2-5.9,6-7.9,4-2.1,4-2.5,3-4.7-1-2-1-2.9,2-6.5,8-9.7,7-9.1,11-8.4,2,0.5,4,1.5,4,3.4,1,1.4,3,4.1,5,5.9,7,6,8,8.1,8,17.8,1,8.6,1,9.1,6,17.3,6,10.4,7,16,2,14-2-0.7-3-0.6-2,2.2,0,1.6,0,4.8-1,7-1,3.8-1,4.2,1,5.8,2,1.5,3,1.7,6,0.8,4-1,7-0.4,15,2.8,3,1.3,3,1.8,2,2.9-1,0.8-4,1.6-6,2-7,1-8,2.6-3,9.4,4,5.3,5,8.1,5,16.1,0,4.3,2,0.2,2-6.5,2-10.4,3-13.6,7-15.2l3-1.5,7,7.3c5,5.2,7,8.7,8,11.6,2,6.3,1,10.1-1,12.3-1,1.1-2,3.3-2,4.9,0,2.9,2,9.2,3,10.1,0,0.3,2,2.9,4,5.8,2,2.8,4,5.2,4,5.2,1,0,5-3.4,6-5.5,0-1.2,1-4.9,1-8.1,1-3.3,2-7.2,2-8.9,1-1.7,3-6.2,4-10.1,1-3.8,3-9,5-11.5,4-5.2,4-7.5,1-10.5-2-2.5-5-14.6-4-17.8,1-4.3,3-5.6,9-5.6,4,0,6,0.7,11,3,3,1.6,6,3,7,3s4,1.5,5,3.4c2,1.9,6,4.4,8,5.6,4,2.2,8,5.6,8,7.4,0,0.5-1,1.4-2,2.1-1,1.1-1,1.4,1,4.1,1,1.6,2,4.5,3,6.5,0,3.4,0,3.7-3,4.7-1,0.6-3,2-4,3.1-1,1.2-2,2.1-3,2.1-3,0-3,1.9,0,5.4,2,1.6,3,4.4,4,6.2,0,2.2,1,4,3,5.5,8,4.9,8,14.9,0,27-8,14.3-8,14.9-13,14.5-2-0.2-5-1.1-6-2.1l-3-1.7,2,3.7c1,4.2,0,6-3,4.9-4-1.2-6-1.1-7,0.2-1,1.2-2,1.2-5,0-2-0.8-4-2.4-5-3.6-1-1.8-2-2-5-1.4-3,0.3-5,1.1-6,1.6-2,0.8-2,1.3,2,4.3,3,3.2,3,3.7,2,7.6,0,3.1-2,6-6,10.6-3,3.4-5,7.4-6,8.8,0,1.4-1,2.5-1,2.5-1,0,0,1,1,2.3,3,1.9,3,2.9,3,6.2,0,2.2-1,5.1-2,6.5s-3,3.8-4,5.5-4,6.5-6,10.7c-5,8.8-7,9.8-16,9.8-8,0-10,1.4-10,7,0,3.4-1,3.5-5,3.4-2,0-6-0.3-7-0.6-4-0.9-5,0.7-1,3.3,2,1.2,4,2.4,4,2.5,1,0.8,1,8.8,0,11.8-1,4-5,5.9-12,6.2-8,0.3-7,0.1-6,2.6,2,2.2,2,2.5-2,5.8-5,5-11,12.7-13,18-2,2.5-4,5.4-5,6.5-3,2.4-5,6.7-5,9.2,0,0.9-2,6.6-5,12.7-5,9.2-5,11.8-5,16.3v5.3h-4c-3,0-5-0.2-5-0.4z"/>
			<path id="nu-3" d="M1744,717.3c-5-3.3-5-13.1,0-19.1,3-2.4,5-2.2,8,0.6s2,14.4-2,18.2c-3,2.4-3,2.4-6,0.3z"/>
			<path id="nu-4" d="M1692,706.1c-2-4.3,1-14.2,6-17.5,4-2.7,5-2.9,13-2.7,4,0.1,5,0.3,6,3.1,1,2.7,1,3.4-2,7.9-4,6.5-10,10.3-17,10.9-4,0.4-5,0.1-6-1.7z"/>
			<path id="nu-5" d="M1670,684.2c-2-0.3-2-1.4-2-5.1,0-2.6-1-5.2-1-5.9-1-0.7-4-1.2-7-1.3-12-0.2-14-2.8-7-9.9,4-4,4-5.8,4-11.5,0-19.6,0-25.9,4-41.2,1-4.8,2-5.2,5-5.8s4-0.3,6,2.2c1,1.5,3,4.7,4,7,1,3.7,2,4.3,4,4.4,2,0,6,2,12,5.9,5,3.3,11,7.9,15,10.2,3,2.4,6,5,6,5.8s1,3.3,2,5.5c2,2.2,3,4.8,3,5.8,0,1.5,1,1.6,5,1.1,5-0.5,6-0.3,9,2.3,3,2.4,4,3.3,4,6.3-1,5.2-2,6.3-6,8.6-3,2.1-4,2.1-8,0.2-3-1.3-6-1.8-8-1.5-3,0.4-4,0-6-1.8-1-1.2-2-3.1-2-4.1,1-2.6-8-7.2-10-5.4-1,0.7-2,2.3-2,3.6,0,3.5-2,7.5-5,10.5-1,1.5-4,4-5,5.6-3,4.2-7,8.3-8,8.4-2,0.4-5,0.5-6,0.1z"/>
			<path id="nu-6" d="M1538,526.7c-3-1.1-7-4-12-7.9-1-1.5-3-2.8-3-2.8-2,0-7-4.3-7-6.1,0-2.5,16-23.9,18-23.9s11,9.7,14,15.2c4,8.2,7,16.1,7,19.1,0,2-1,3.3-4,5.2-4,2.6-7,2.9-13,1.2z"/>
			<path id="nu-7" d="M1910,677.4c0-0.2-7-0.6-14-0.9-11-0.5-15-1-16-2.3-1-0.9-4-2.9-5-4.4-3-2.2-4-2.6-9-2.4-5,0.3-8-0.6-19-5.5-6-2.9-7-3.7-8-7.2s-1-4,0-4.9c2-1,3-2.8,1-2.8-1,0-3-1.5-6-3.4s-6-3.7-8-4.1-4-1.7-5-3.5c-2-4.3-7-7.4-12-8-5-0.4-6-0.2-8,1.8-1,1.6-3,2.2-6,2.2-4,0-5,0.6-9,4l-4,4h-8c-14,0-17-2.5-19-14.8,0-4.3,0-5,3-7.6,2-2.3,3-3.8,3-6.8,0-2.5,1-4,2-4.7,1-0.5,7-1,13-1,11-0.2,13-0.4,15-2.5,5-3.3,10-5.6,12-5.6s2-0.4,2-2.2c-1-2.7-2-5.1-2-5.9,0-0.4-2-1.9-4-3.4-4-2.5-4-2.9-4-6.5,1-2.1,1-5.1,2-6.7,1-1.5,4-7.4,7-13l5-10.1-2-7.1c-2-6.7-8-16-13-20.1,0-0.8-2-3.2-4-5.2-1-2.2-4-5-7-6.6-4-2.1-5-3.4-6-6.2,0-3.1-1-3.5-4-3.2-1,0.2-3,1-4,1.7s-3,2.2-6,3.4c-3,1.7-4,1.8-5,0.6-2-2,0-5.5,3-8.7,3-2.7,3-2.8,1-4.2-2-2-3-2-7,0s-6,1.2-6-2.4c0-1.9,1-3.2,2-3.8,2-0.8,2-1.2-3-5.6-8-7.9-12-11.5-14-11.1,0,0.3-1,2-1,3.9v3.4l-10,0.2c-6,0.2-13,0.2-17,0.1-6-0.1-7,0.2-7,1.6s-1,1.6-8,1.5c-5-0.1-13-0.5-19-0.9-6-0.5-12-0.4-14,0.3-5,1.2-8-0.9-10-6-1-2.8-1-3.3-4-3-11,1-12,0.9-15-1.3-7-4.9-12-12.7-12-17.3,0-1.5,1-2.1,5-2.6,2-0.3,6-0.6,8-0.6,4,0,4-0.2,3-1.4-2-2-8-3.6-13-3.6-3,0-4-0.5-5-1.8-1-4.3-3-12.6-2-17,1-20.5,1-22.9,5-35.4,7-18.2,11-26.6,17-29.9,9-5.4,23-3.9,25,2.5,1,2.5,0,3.5-2,6.7-2,2.2-4,5.4-5,7.6,0,2.1-1,4.8-2,6.1-2,2.8-4,13.2-3,14.5,0,0.5,0,4.2,1,8.3,0,8.2,0,9.4,3,9.4,1,0,2-1,2-2.8,1-1.5,2-3.5,3-4.5,1-1.5,1-2.1,0-3.5-2-3.5-3-6.9-3-11.5,0-3.8,0-5.3,2-6.5,1-1,2-2.5,2-3.4,1-1,1-1.8,2-1.8s1-0.9,1-2c0-3.6,8-14.4,12-16.7,4-2.5,14-4.3,17-3.2,2,0.7,3,3.2,9,14.4,4,7.1,7,14.8,6,16.9,0,2.8,3,7.6,6,7.6,2,0,4-0.5,6-1.1,3-0.8,4-1.4,3-3-1-3.4,5-8.3,13-9.8,5-1.2,6-1.1,9,0.8,2,1.2,5,2.1,6,2.1,3,0.1,8,3.7,9,7,0,3.4,3,6,5,6,1,0,2,1.1,2,4,1,2.2,2,4,2,4,1,0,3,2.5,6,5.5,5,4.6,6,5.2,7,3.8,0-1,1-3.3,2-5.1,1-3.6,2-3.6,11-0.5,3,1.2,4,2.2,6,6.4,1,2.9,3,5.6,5,6.6,2,0.9,3,2.6,4,3.8,2,3.9,5,4.7,7,2.4,4-2.5,6-2.1,12,2.2,4,2.7,4,3.4,4,5.7-2,7-2,8.3-1,8,1-0.2,2-1.5,3-3,3-4,6-3.6,11,1.4,4,4.8,6,8.3,7,11.3,0,5.6,0,6.2,3,7.8,2,0.9,5,3,5,4.6l2,3-5,2.7c-3,2.2-5,2.5-6,1.6-4-1.4-4-0.5-2,2.4,1,2.3,1,6.5,0,10.5-1,2.2,2,5.3,7,6.7,2,0.7,5,2.4,8,3.8,2,1.5,5,2.8,7,2.9,2,0,5,0.6,6,1.2,1,0.5,5,0.8,8,0.6l6-0.5,5,5.6c5,4.9,6,5.6,10,5.7,2,0.1,5,0.2,5,0.3,1,0,2,1.6,2,3.4s1,3.6,1,4c1,0.3,4-0.5,8-1.8l7-2.4,4,2.1c3,2,4,2.5,4,7.4,0,6.5,0,8.9-3,11.9-2,2.2-2,2.4,0,4.2,1,1.4,1,2.3,0,4.2,0,1.4-1,4,0,6,0,4.5-3,9.6-7,9.6-2,0-2,0.3-1,2.2,1,3.5,4,9.6,5,10.3,2,1.3,1,3.4-3,5.3-4,2-4,2-8,0.2-2-1-5-2.4-8-3.1-4-1.1-6-2-8-6.4-4-5.8-11-12.5-13-12.5-1,0-2-0.6-3-1.3-4-3.9-11-6.4-11-3.9,0,0.5-1,1.4-3,2.1l-2,1.2,2,2.8c4,3.4,4,8,0,9.6-1,0.8-1,1.5-1,3,1,1.1,1,1.7,1,1.2,0-1.2,7,2.2,9,4.1,0,1,3,3.9,5,6.4,4,4.3,5,5,16,7.7,3,0.9,4,1.7,4,3.6,1,1.3,2,2.9,3,3.5s3,2.8,4,5c2,2.1,6,7.1,10,11.1l7,7.2v13.9c0,7.6-1,14.1-1,14.3-1,0.7-19-5.1-29-9.2-5-2-10-4.8-12-6.3-2-2.4-5-3-11-2.1-2,0.2-1,1.9,2,3,1,0.6,3,2.7,4,4.5,2,2.8,4,3.9,10,6.3,4,1.6,12,6,18,9.9l11,6.9v6,6l-6,0.1c-3,0.1-6,0-6-0.2z"/>
			<path id="nu-8" d="M1764,673.7c-4-2.5-5-5.2-3-7.2s4-1.9,7,0.6c3,2.1,4,5.6,2,7.7-2,1.5-2,1.5-6-1.1z"/>
			<path id="nu-9" d="M1775,662.3c-2-0.4-2-1-2-3.1s1-2.8,3-3c3-0.4,7,2.7,6,5.1,0,1.7-2,1.9-7,1z"/>
			<path id="nu-10" d="M1759,551.2c-7-6.8-5-27.5,4-32.8,3-2.3,8-1.1,12,2.9,3,3.1,3,3.4,3,14.2,0,12.4,0,13.3-8,16.8-5,2.4-8,2.1-11-1.1z"/>
			<path id="nu-11" d="M1786,532.8c-2-1.4-5-5.2-4-6.8,1-2,9-1.4,11,0.7,2,2.6,1,4.1-2,5.6-2,1-3,1.2-5,0.5z"/>
			<path id="nu-12" d="M1727,506.3c-1-1-1-1.6,1-4.6,2-1.7,3-4.6,3-7.8,1-4.9,3-9.9,5-9.9s2,3.2,1,5.3c-1,1.2-1,3.7-1,5.5,0,5.4-7,14.1-9,11.5z"/>
			<path id="nu-13" d="M1522,434.9c-2-2.1-4-4.6-5-5.6,0-10.8-2-13.5-11-19.7-2-1.2-5-4.9-6-8.1-4-5.9-4-6.1-2-10.5,1-2.5,2-5.3,4-6.3,2-1.9,2-1.8,7,2.2,6,3.8,6,3.9,7,2.2,1-1,3-3.5,3-5.6,1-3.2,1-4-1-5.9-5-5.2-6-8.4-5-13.4,1-5.4,4-10.2,7-10.2,1,0,4,1.4,7,3,4,2.6,5,2.8,6,1.6,2-3,13-5.3,16-3.4,0,0.6,1,3.3,1,6.3,0,4.1,0,5.4-2,6-1,0.6-1,0.7,0,1.9,3,1.9,2,3-2,8.6-3,2.8-5,5.5-5,6.1,0,0.5,1,1.5,3,2,2,0.9,3,1.7,3,3.7,0,1.5,1,3.8,1,5.2,3,5.2,4,7.7,5,14.7,0,6.4,0,7.6-2,11.1-3,4.1-8,8.2-11,8.2-1,0-2,0.4-2,0.9,1,1.6-4,6.7-7,7.8-4,1.1-4,0.9-9-2.8z"/>
			<path id="nu-14" d="M1564,415.9c-2-1.6-3-2.9-3-6.4,0-2.4,0-5.6-1-7.1-2-6.2-1-29.1,3-37,1-2.6,2-6.4,3-8.5,0-5.3,4-7.1,15-8.5,3-0.4,5,0,8,1.5,2,1.2,5,2.1,6,2.1,3,0,9,2.6,13,5.6,3,2.5,3,2.5,1,5.7-1,1.8-2,3.9-3,4.8,0,0.9-1,2.9-2,4.5,0,1.6-2,5.2-3,7.9-2,2.8-4,7.6-5,10.9-1,3.2-2,5.9-2,6.1-1,0.2-4,0.6-8,0.9-3,0.3-7,0.9-7,1.3-1,0.7-2,7.8-2,14,0,1.6-5,4.3-8,4.3-2,0-4-0.9-5-2.1z"/>
			<path id="nu-15" d="M1708,382.8c-4-7.6-11-22-11-23.3,1-2.3,21-2,26,0.3,5,3.1,12,10.6,16,16.9,2,3.7-1,5.5-9,5.2-4-0.2-7,0.3-10,1.9-6,3.2-9,2.9-12-1z"/>
			<path id="nu-16" d="M1608,335.5c-2-1.4-5-2.5-7-2.5-5,0-6-1.9-7-8.8,0-3.3,0-6.9-1-8-1-2.9-2-12.2-1-14.5,1-1.2,1-4.6,1-7.6,1-4.7,0-6.1-2-9.1-2-1.9-3-4.4-3-5.5,0-1.7-2-2.1-8-2.6-4-0.3-8-0.9-9-1.3-2-1-12-12.6-12-15.4-1-1.2,0-3.8,0-5.7,1-4.2,4-5,12-4.1,8,1,13,4.1,14,9.3,1,2.7,4,3.5,11,3,7-0.7,11,1.3,11,6.4,0,1.8,1,2.9,3,3.7,3,1.8,4,5,3,9.9-2,4-2,4.1,2,7.3,1,1.8,3,4.3,3,5.5,0,1.9,1,2.3,4,2.9,3,0.3,8,1.3,13,2.3l9,1.6,5-2.6c3-1.5,6-2.7,7-2.7,0,0,3-1.6,5-3.5,4-3.5,4-3.6,12-3.4,10,0.2,13,1,19,5.5,9,5.4,13,12.8,10,16-1,0.6-1,2.1,0,4.1,1,2.7,1,3.5,0,5-1,1-2,3.4-2,5.3-1,3-1,3.8-5,5.9-9,4.2-21,4.1-23,0,0-1.9-1-2-2-0.8-1,0.8-4,2.4-6,3.6-4,1.9-7,2.3-20,2.6-16,0.4-19-0.3-20-4.3-1-2.7-2-2.5-6,1.5-2,1.9-4,3.5-4,3.5-1,0-3-1.2-6-2.5z"/>
			<path id="nu-17" d="M1574,332.3c-2-0.5-13-8.1-15-10.9-3-2.4-2-5.6,2-13.5,3-6.3,4-7.6,8-8.7,4-1.6,9-0.5,13,3,3,2.2,3,2.9,4,14,0,11.6,0,11.6-2,14.2-3,2.5-5,3-10,1.9z"/>
			<path id="nu-18" d="M1535,313.9c-4-2.1-9-7.1-9-9.8,0-0.9,1-2.9,3-4.5l3-2.8-9,0.3c-10,0.4-12-0.5-12-6.9,0-4.7-1-6.6-7-10.1-3-1.7-5-3.4-5-3.7s1-1.9,2-3.5c1-2.6,2-2.8,6-2.2,5,0.7,8,1.9,8,3.7,0,0.7,2,3.3,4,5.9,4,3.5,6,4.7,8,4.7s3-0.4,3-3.6c1-3.9-1-5.9-6-9.2-2-0.9-3-2.2-3-2.9s2-3,5-5.2c4-2.9,6-3.8,8-3.5,1,0.2,5,0.6,8,0.9,3,0.2,6,1.2,8,2.1l2,1.5v18.6c-1,11-1,19.1-2,19.8-1,0.8-1,2.8,0,4.8,1,5.4-1,7.7-6,7.6-3,0-6-0.9-9-2z"/>
			<path id="nu-19" d="M1463,307.6c-4-2.6-7-2.6-10-0.2-1,0.8-2,1.2-3,0.8-1-1,4-23.8,6-23.4,1,0.1,1-1.7,1-5.1,0-6.7,5-30.4,7-33.5,3-4.6,10-0.7,8,4.1-1,1.3-1,2.7,0,4.1,1,2.4,0,8.8-1,11.4,0,0.9-1,3.5-1,5.7,0,3.4,1,4,3,4.3,1,0.2,4-0.2,7-0.9,4-1.1,4-1,6,0.7,4,3.7,5,17.6,1,21.9,0,1.1-2,3.4-3,5.2-5,7.3-14,9.4-21,4.9z"/>
			<path id="nu-20" d="M1490,307.4c-1-1.9-1-3.2,1-5.2,1-1.5,1-2.8,1-2.9,1-0.1,2-0.4,4-0.8,3-0.5,3-0.2,5,4.2,1,2.8,2,5,1,5.6,0,0.5-3,1.1-6,1.2-5,0.4-5,0.2-6-2.1z"/>
			<path id="nu-21" d="M1685,276c-1-1.1-1-2.3-1-2.8,1-1.2,0-2.7-3-4.5-3-1.4-4-1.4-6,1-1,1.9-3,2.3-4,1.8-2-0.4-4-0.9-5-1.2s-3-1.7-5-3.1c-2-2.2-2-2.4-3-1.3-1,0.8-2,2.5-2,4,0,3.4-3,5.4-7,4.6-2-0.4-9-0.8-16-0.9-10-0.1-12-0.4-15-2.2-2-1.8-3-2.9-3-7.7,0-3.7,0-6.7,1-8.6,3-4.7,9-10.1,11-10.1,5,0,5-2.3,2-5.6-6-5.3-7-10.9-5-15.7,2-3.2,3-3.7,8-3.7,7,0,11,2.9,12,8.5,1,2.1,2,4.8,4,6.2,2,1.9,2,2.2,4,1.3,2-1,2-1.3-2-5.7-3-2.5-5-5.8-6-7.4-1-2.6-1-3.3,1-6.4l3-3.5h-7c-8,0-11-1.6-11-6.6,0-1.9,1-5.3,2-7.5,1-2.3,2-4.3,2-4.6-2-1.6,3-6.3,8-9.4l7-3.4,7,3.5c8,4.4,8,4.3,8,2.8v-3c1-1,1-1.8,0-1.9,0-0.1-2-0.2-3-0.4-5-0.3-11-7.9-14-14.7-1-2.9-3-7.3-5-9.7-1-2.4-3-4.7-3-5.2,0-0.4-1-1-2-1.4-3-0.9-4-5.3-3-12.7,1-8.7,2-9.8,8-9.3,7,0.6,9,1.9,16,11.6,3,4.4,6,7.9,7,7.7,1-1.1-2-7.2-5-10.9-5-5.6-5-8.6,0-11.4,3-1.2,6-3.3,8-4.8,3-1.5,5-2.7,6-2.7s2-0.8,2-2,2-3.9,4-6.1l4-4-2-3c-2-1.7-3-3.8-3-4.73,0-0.92-1,0.35-2,2.83-7,12.2-11,16.4-19,16.6-2,0-7,0.7-10,1.4-8,1.9-11,0.8-12-4.2,0-2,1-5.2,1-7.2,1-2,2-3.6,1-3.6s-4,4.3-4,5.7c0,0.8-1,2.5-3,3.8-2,1.9-3,2.2-5,1.5-7-1.9-11-7.5-9-10.5,1-1.3,1-1.5-1-1.5-1,0-2-0.1-3-0.2-1-0.3-3-3.5-3-6.67,0-2.67,1-4.12,4-7.02,4-3.92,5-5.11,2-5.11,0,0-2-0.9-3-2s-3-2-4-2c-9,0-7-9.3,3-13.03,2-0.75,5-3.07,7-5.17,3-3.23,4-3.8,8-3.8s4-0.15,4-2.41c-1-1.88,0-2.98,2-4.94,2-1.39,3-3.39,3-4.46,0-2.51,2-4.18,5-3.71,1,0.2,2,0.4,3,0.44,0,0.05,2,1.17,4,2.5,4,2.59,5,2.07,5-2.75,0-1.2,2-4.39,3-7.1,2-2.71,4-5.72,4-6.7s2-3.66,4-5.95c3-3.36,4-4.07,7-3.66,2,0.41,2,0.03,3-2.31,1-3.05,5-5.1,9-4.43,8,1.33,10,1.13,15-1.25,5-2.645,12-3.643,15-2.04,2,0.71,4,0.49,8-0.775,4-1.284,7-1.503,8-0.792,1,0.54,5,0.824,8,0.631,7-0.475,9,0.126,11,3.506,1,3.12,4,4.88,8,5.65,4,0.64,6,2.44,7,7.16,1,6.02,1,11.31-1,18.91-1,5.36-3,7.62-5,9.73-2,1.51-4,2.75-5,2.75s-7,6.27-9,12.02c-2,2.83-3,5.35-3,5.61,0,1.29,5-3.47,6-5.64,1-1.37,2-3.4,4-4.5,2-1.09,3-2.33,3-2.74,0-1.13,5-0.9,6,0.27v6.59c0,4.23,0,6.46-2,9.26-4,5.65-7,12.15-7,13.41,0,0.63-1,5.88-4,11.72-3,5.8-5,11.6-6,13-1,3.1-3,14.1-4,19.5,0,5.3-5,9.8-9,9.3-3-0.3-3,0-4,3,0,1.8-2,4.4-3,5.7-2,2.2-10,5.8-11,4.9,0-0.2-2,0.5-3,1.7-1,2.1-1,2.2,1,3.6,2,1.8,3,5.9,0,8.5-1,1.4-1,1.8,0,1.9s2,0.2,3,0.4c0,0.1,1,0.3,2,0.3,1,0.1,4,1.6,5,3.3,4,3.9,4,11.1,1,13.1-3,1.7-3,2.6,0,5,2,1.1,3,2.8,3,3.9,0,1.2-1,2.1-3,2.5-2,0.5-2,1.2-2,3.8,0,4.5-4,9.3-9,9.8l-3,0.3v7.5c0,6.8,0,7.8-2,10-6,6.5-6,6.6-4,9.5,1,1.4,3,3.3,4,4.2,2,0.9,4,2.3,5,3.1,1,2.1,1,7.2-2,12.4-4,10-19,18.9-20,12.8z"/>
			<path id="nu-22" d="M1497,238.6c-2-2.8-3-7.1-1-12.5,1-3.8,3-4,6-0.3,4,5.5,4,12.1,0,14.2-2,0.9-2,0.6-5-1.4z"/>
			<path id="nu-23" d="M1571,237.2c-7-3.7-8-7.3-2-12,4-3.9,9-4.3,15-1.2,5,3.5,5,7.9,0,12.5-4,2.8-8,3.1-13,0.7z"/>
			<path id="nu-24" d="M1562,220.5c-3-1.4-5-4.3-4-7.3,1-1,0-3-2-5.2-4-4.2-4-6.7-4-12.8,1-5.3,4-8.6,7-7.6,2,0.3,5,2.4,8,4.5,4,2.1,7,3.9,7,3.9,2,0,3,5.6,3,12v6.9l-5,3.6c-5,3.9-5,4-10,2z"/>
			<path id="nu-25" d="M1541,218.7c-2-1.3-4-4.1-6-6.3-6-7.1-9-8.8-16-8.5-4,0.2-5-0.1-8-2.8-3-3.1-4-6.7-2-10.2,1-1,2-1.9,3-1.9,0,0,2-0.9,3-1.9,2-1.7,2-2.5,1-5.8-1-2.3-3-4.9-5-6.6-6-5.4-3-13.7,5-13.7,4,0,10,3.9,10,7,0,1.9,1,3.3,4,3.6,2,0.4,7,5,9,9.1,1,2.3,3,5,4,6.1,3,3.7,4,5.5,2,9.7-2,5.7-1,7,2,10.8,2,1.9,3,4.2,3,5,0,2.9-2,6.5-5,7.6-2,0.9-2,0.8-4-1.2z"/>
			<path id="nu-26" d="M1598,207.9c-2-2.4-4-5.1-5-6.1,0-1-1-3.1-3-4.6-3-3.8-7-11.6-7-15.2,0-4,4-8,8-8,2,0,6-2.8,6-4.9,0-0.8-5-3.5-7-3.5,0,0-3,0.4-5,0.8-6,1-9,0.2-11-2.7-1-1.7,0-3,1-5,0-1.6,1-2.7,0-2.7s-2-0.9-3-2c-2-2.2-3-7-1-11.9,1-2.8,2-3.1,5-3.1,4,0,4-0.2,3-2.2,0-1.3-2-3.5-3-4.9-3-2.2-3-3-3-5.7,1-3.6,3-5.5,7-5.9,6-0.8,6-1.5,1-6.6l-3-3.7,2-4c1-2.2,3-4.6,5-5.5,2-1.18,3-2.26,3-5.24,0-3.51,1-3.78,4-4.06,4-0.3,10,2.76,11,5.8,2,4.3,5,10.8,5,11.8,0,2.1,4,8.7,9,13.4,3,3.5,4,5.5,4,7.8,0,2.4,1,4.4,5,8.4,4,4.6,5,5.8,5,9.5,0,4.5,0,5,10,13,4,2.9,4,3.8,4,7.6,0,3.7-1,5.4-6,12.2-3,4.4-7,8.5-8,9.3-2,0.9-3,2.2-3,3.8,0,1.4-2,4.7-4,7.3-4,5.4-4,5.8-9,4.5-2-0.6-2-0.3-2,2.6,0,3.2-1,3.3-6,3.6s-5,0.1-9-3.9z"/>
			<path id="nu-27" d="M1474,192c1-1.4,1-4.2,2-6.2,0-2.1,1-3.8,1-3.8,2,0,0,9.3-2,11-1,1.3-1,1.2-1-1z"/>
			<path id="nu-28" d="M1550,148.7c-3-2.7-6-6.8-5-9,1-3.4,2-4.7,5-4.7,2,0,3,1,5,4.1,4,4.9,4,6.3,1,8.9-2,2.3-4,2.5-6,0.7z"/>
		</g>
		<g id="ON" onclick="parent.provinceClick(evt)">
			<path id="on-0" d="M1749,1249c2-2,3-3,6-3,2-1,4-1,5-2,2-1,3-8,1-9-1-1-1-1,0-3,0-1,1-3,1-5,1-2,2-5,3-5,4-3,7-9,6-12v-12c0-7,0-8,3-14l4-7-2-4c-1-2-3-4-4-5-2-2-3-5-1-5l6,6c6,5,11,9,17,10,5,2,8-7,4-13-3-4-14-16-16-18-1-1-5-2-9-2s-9-2-12-2c-4-2-10-2-20-2-14,0-15,0-16-2-1-1-4-3-7-5-4-2-5-3-5-5-1-2-2-4-3-6-3-3-3-3-2-4,3,0,2-3,0-6-1-2-3-5-4-7-2-4-2-5-6-5-4-1-14-6-17-9-1,0-1-3-1-5-1-2-1-5-2-6v-3h-8c-8,1-9,1-14-2l-6-3-4,3c-4,2-4,2-3,4,2,1,1,2-5,6-3,2-8,6-10,8-4,4-5,4-19,2-4-1-11-1-15-1-6-1-13-3-13-5,0-1-1-1-3-1-1,0-4-1-6-3-3-4-4-4-13-4-6,0-9,0-10-1s-3-2-6-3c-5-1-6-1-6-8-1-6-1-7-4-8-3-2-3-2-3-8s1-33,2-43c0-3,0-12.7,1-21.4,0-19.9-1-16.8,22-41.6,5-5.2,12-12.8,16-16.9s7-7.9,8-8.5c0-0.6,6-7.4,13-15.1,6-7.7,14-16.5,16-19.5,14-14.9,20-21.7,22-24l2-2.5,3,1.9c4,2.3,11,8.6,11,10.1,0,0.6,1,2.5,3,4.3,3,2.3,5,3.5,10,4.3,4,0.8,6,2.1,9,4,2,2.7,5,3.7,10,3.8,1,0.1,4,2.3,7,4.9l5,4.9,19,0.6c17,0.6,20,0.9,23,2.8l4,2.1v8.6c-1,4.8-1,9.1-2,9.6,0,0.4,0,2.2,1,3.9s2,5.2,3,7.7c1,8,1,8.8,2,10.7,0,1,1,3.9,0,6.4,0,3.7,1,5.5,3,9.3,4,6.1,16,20.6,17,20.6,2,0,9,8.3,11,13.5l1,5.5h7l6-1v5c1,8,2,12,2,18,1,3,1,7,1,8,1,1,1,5,2,8v9c1,3,2,11,3,17v9c2,12,3,20,4,25,0,4,1,9,3,13,3,6,4,7,9,11,6,4,15,8,25,9,4,0,7,1,10,3s6,3,7,3,3,2,4,4l3,4,9-1c7,0,9-1,15-4s11-5,11-3c0,1,1,4,1,6,1,2,0,3-3,5-6,6-11,11-19,20-3,5-7,9-8,9s-5,4-5,5c2,2-6,5-13,5-12,0-29,7-33,13s-4,8,0,9c2,1,5,2,6,1,1,0,2,1,3,3,2,4,2,5-5,5-4,0-15,4-18,7-1,1-1,1,1,3l2,2-2,1c-2,0-5,0-7-1-10-2-12-1-24,11-6,7-8,8-11,8-2,0-5,0-7,1h-3l1-3z"/>
		</g>
		<g id="PE" onclick="parent.provinceClick(evt)">
			<path id="pe-0" d="M2101,1071c-1,0-5,0-9-1-5,0-11-1-14-2-7-1-8-2-10-2-4,0-5-2-2-7,1-3,3-5,4-5,0,0,3,2,5,4,4,4,5,4,6,3,1,0,3-1,6-1s6,0,7-1c3-2,12-4,12-3,1,0,0,2-1,3,0,2-1,5-1,7,0,4-2,7-3,5z"/>
		</g>
		<g id="QC" onclick="parent.provinceClick(evt)">
			<path id="qc-0" d="M1899,1145c-1-1-2-4-2-6-1-3-1-4-5-4s-9,2-15,6c-2,2-5,2-10,2-8,0-8,0-10-3-1-2-3-4-4-4s-5-1-7-3c-4-2-7-3-11-4-8,0-18-4-24-7-4-3-5-5-8-11-2-4-3-9-3-13-1-4-1-8-2-10,0-1,0-7-1-12s-1-11-2-13v-8c-1-2-2-16-4-31-2-14-3-26.7-4-28.1,0-2.3,0-2.7,3-3.3,3-0.5,3-0.8,2-3.7,0-2.4,0-3.9,3-7.2,1-2.3,2-5.3,2-6.7s-2-6.3-4-11-4-10.3-5-12.5c0-2.2-2-5.1-3-6.4-1-1.7-1-4-1-7.3,0-5.2-2-10.9-6-12.8-1-0.7-2-2.2-2-3.8,0-1.5-1-3.8-2-5.2s-2-3-2-3.5c0-1.5,5-5.8,11-9.3,2-1.7,6-4.8,8-6.9,1-2.1,5-6,7-8.7,3-3.3,6-7.8,8-13.8,4-8.2,4-9.8,4-17.5,0-6.2-1-10.6-3-16.6-2-4.5-3-9.4-3-10.9-1-4.6-10-14.2-17-17.6-8-4.1-13-10.1-14-14,0-1.6,1-4.7,2-6.8,1-2.2,1-4.6,2-5.4,0-0.8,1-2.2,2-3.2,1-1.2,2-2.8,2-6.4,0-3.4,1-5.4,2-6.9,2-1.9,2-2.3,0-6.2,0-2.3-1-5.2-1-6.6-1-3-4-8.2-7-12.2-2-2.7-2-4.1-2-14.3,0-8.2,0-11.9-1-13-1-1-3-4.8-4-8.6l-3-6.8,2-5.3c3-5,3-5.2,8-5.9,7-1,13-0.7,18,0.8,5,2,13,2.8,17,1.5,1-0.5,4-2.8,6-5,3-2.1,5-3.9,5-3.9,2,0.1,22,10.2,28,14.5,5,3.2,6,4.5,6,6.5,0,1.4,0,3.6,1,5.1,2,2.2,3,2.6,12,3.7,6,0.7,13,2,15,2.9l5,1.5v5.5c-1,5.3,0,8.8,4,21.8,1,1.7,1,4.2,1,5.7,0,1.7,1,3.8,3,5.3,1,1.4,3,4.6,4,7l2,4.5,5-0.6c5-0.6,5-0.4,10,3.9,3,2.5,7,4.9,8,5.2,2,0.4,3,1.1,3,1.6,0,1.9,2,0.8,6-3.3,4-3.2,5-5.3,5-8.4,1-2.9,2-4.4,3-5.2,2-0.6,3-2.7,4-5.3,2-5,1-15.4,0-18.4-1-1.1-1-2.4-1-3,0-0.5,1-3.4,1-6.4,1-5,3-8.6,5-7.5,0,0.2,1,2.1,1,4.1,1,4.7,6,12.3,7,12.3,2,0,4,10,4,12.5-1,2.7,0,3.1,6,2.7l5-0.4v6.3c0,3.5,0,7.9-1,9.8-1,2.2-1,4,0,5.1,1,2.2,7,5.6,10,6.5,4,0.9,4,1.7,5,13.5,0,5.2,1,11.7,1,14.5,1,2.7,2,6.6,2,8.6,1,2.4,2,4.3,4,5.8,3,2.2,8,11,8,14.2,0,0.9,1,2.3,2,3.3,1,0.9,3,3.4,3,5.5,2,3.7,2,4,0,8.6l-2,4.7-5-0.5c-3-0.3-7-0.9-9-1.2-2-0.6-3-0.3-5,2.9-3,3.9-4,4.4-7,2-1-0.8-5-2.1-8-2.8-7-1.4-7-1.1-8,3.7-1,1.6-2,3.3-4,3.9-1,0.9-2,1.9-2,4.5,0,2.4-1,4.3-3,6.6-3,2.8-3,3.7-3,7.2,1,2.3,2,5.3,2,6.7,3,4.4,9,10.4,13,12.4,4,2.1,5,4.5,3,10.2-1,3.2-1,3.6,1,5.9,3,2.5,7,2.7,13,0.8,2-0.6,2-0.2,2,4.5,1,3.6,2,6,4,7.7,2,2.3,3,2.5,8,1.8,4-0.5,6-0.3,7,1.1,1,1,3,1.9,4,2.1,4,0.9,15,1.1,16,0.4,1-0.4,1-2.8,2-5.2,0-5.6,1-12.3,1-12.7,0-0.1,2,0.7,4,1.9,3,1.5,5,1.9,8,1.5,5-0.6,21-6,38-12.6,25-10.1,41-15.9,47-17.4,3-0.9,7-2.2,8-2.8s1-0.7,2-0.2c2,2.7,7,9.3,7,9.7,0,0.3-3,2.7-6,5.4-9,6.9-15,13.2-16,17.3,0,1.9-2,7.6-5,12.5-2,4.9-4,10.1-5,11.5-1,3.1-17,11.8-28,14.8-3,1.2-12,3.6-18,5.6-39,11.2-58,18.2-61,22.9-1,1.3-3,4.7-3,7.3-1,2.7-2,8.4-3,11.4-2,6-2,7-5,7-4,0-14,11-18,21-1,2-3,7-5,10-1,2-3,6-3,8-1,8-17,33-25,40-11,9-26,25-25,26,0,1,4-3,9-9,5-5,11-11,15-14,6-5,13-12,18-19,4-5,11-20,11-22,0-1,1-3,1-4,2-4,11-15,15-19,2-1,6-5,8-7,3-3,8-7,11-9,4-2,10-6,14-9,5-3,9-5,14-6,6-2,7-2,12,0,5,1,7,2,8,5,4,8,3,13-2,20-6,7-8,8-14,8-11,2-21,4-24,7-4,4-7,5-15,5-10,1-10,2-9,12v8h-4c-2,1-5,1-6,0-2,0-3,1-4,2-2,3-7,17-7,23-1,2-1,7-2,11s-1,8-1,11c-1,8-4,14-8,17-2,1-5,4-6,6s-3,3-4,3c-2,1-10,2-19,4s-18,4-21,4c-5,0-6,0-7-3z"/>
			<path id="qc-1" d="M2062,992.2c-1-0.2-4-1.2-5-2.1-1-1-5-2.3-8-3-7-1.5-9-4.1-4-7.7,2-1.9,4-2.4,9-2.5,14-0.3,19,0.3,28,3.4,9,3,9,3.1,9,6.3,0,3.8,0,4-11,4.9-13,1-15,1.1-18,0.7z"/>
		</g>
		<g id="SK" onclick="parent.provinceClick(evt)">
			<path id="sk-0" d="M1420,1059c0-1-4-1-8-1-5-1-10-1-11-1-1-1-5-1-9-1-4-1-8-1-9-1-1-1-5-1-9-2-4,0-18-3-31-6s-25-5-26-5c-5-1-7-2-13-3-4-1-7-2-8-2-2,0-6-1-10-2-7-2-8-3-8-4,1-1,9-33.7,9-37,1-0.8,2-7.4,4-14.5s5-19.7,7-28,5-24.2,8-35.5,5-21.4,6-22.5c0-1.1,1-7.6,3-14.5s5-21,8-31.5c2-10.5,6-25.3,7-33,2-7.7,5-20.8,7-29.2l4-15.1,5,0.4c3,0.2,8,0.7,10,1.2,3,0.4,9,0.3,13-0.2,7-0.9,8-0.8,14,1.8,6,2.5,8,2.7,8,0.6,0-1.1-21-11.5-27-12.9-2-0.6-5-1.1-6-1.1s-3-0.9-4-2c-2-2.2-5-2.6-8-1-2,1.3-2,0.9-1-6,1-4,2-5,3-4.6s8,1.9,15,3.1c1,0.3,3,0.7,5,0.9,3,0.7,44,8.8,47,9.2,1,0.3,8,1.6,15,2.9,6,1.3,13,2.5,16,2.7,3,0.4,3,0.6,3,3.9,0,1.9-1,11.7-2,21.9-2,10.2-3,20.8-4,23.5,0,4.9-1,7.5-3,7.5s-8,6.6-9,9.8c-1,2.3-1,3.9,0,6.4,2,7,2,10.5-2,14-2,2.3-3,3.7-2,4.7,1,1.2,1,0.9,4-1.2,2-1.5,4-2.7,5-2.7s1,3.2-1,23c0,3,0,9.6-1,14.5,0,4.9,0,11-1,13.5,0,2.5,0,9-1,14.5,0,5.5,0,11.6-1,13.5,0,1.9,0,8.4-1,14.5,0,6.1,0,12.1-1,13.5,0,1.4,0,7.9-1,14.5,0,6.6,0,12.7-1,13.5,0,0.8,0,7.1-1,14v14c-1,1-1,7-2,14,0,7,0,13-1,14v9c0,5-1,7-3,6z"/>
		</g>
		<g id="YT" onclick="parent.provinceClick(evt)">
			<path id="yt-0" d="M1160,680.7c-1-0.7-5-2.8-9-4.7-6-2.8-28-14.1-64-33-11-6-53-31.8-83-52-11.1-7.1-16-10.8-16-12.1,0-2.5,3.1-7.4,6.3-9.9,5.7-4.6,2.5-7.5-8.9-7.9-2.3-0.1-3.3-0.7-3.7-2.1-0.3-1.1-0.9-2-1.4-1.8-1.8,0.5-5.2-1.4-5.8-3.3-0.5-1.5,1.9-5.8,9.3-16.7,13.7-20.3,39.2-58,59.2-87.2,15-23.3,36-53.2,63-93.7l12-18.1,3,1c7,2.3,9,4.6,10,11,0,3.2,1,7.9,3,10.5,1,2.5,2,6.3,3,8.4,0,2.9,1,4.8,4,7.4,4,3.2,4,3.6,3,5.2-2,2.5-12,19-15,23.8-1,2.2-3,6.5-4,9.5,0,3-2,7.5-4,10-4,8.8-4,8.1,6,16.1,8,5.4,10,7.7,10,9.5,0,1.3-2,5.4-4,9.2-2,4.4-3,8.7-4,12.3,0,5.4,0,5.6,3,8.3,4,3,4,2.1,3,13.8,0,0.3-1,0.9-3,1.3-3,0.7-6,4.2-6,7.4,0,1.1-1,3.5-2,5.4-2,3.7-2,7,1,9.6,2,0.9,2,2.4,1,5.3,0,3,0,4.7,2,7.1,2,2.2,2,4.7,3,8.7,0,3,0,7,1,8.9,2,3.3,2,3.7,0,10.5-2,9.1-4,16.2-4,25.8-1,4.2-2,9-2,10.8-1,2.8-1,3.4,1,5.8,4,3.6,5,5.6,6,13.2,1,3.6,3,8.8,5,11.7,2,3.8,2,5.3,1,5.7,0,0.2-1,2.6-1,5.3-1,2.6-1,6.1-2,7.6,0,3.3,1,4.6,9,8.3,3,1.4,7,3.7,9,5.1,2,1.5,5,2.7,7,2.8h3l-1,10.4v10.8c0,0.1-1-0.3-3-1z"/>
		</g>
	</g>
</svg>